<?xml version="1.0" encoding="UTF-8"?>
<svg version="1.1" xmlns="http://www.w3.org/2000/svg" width="500" height="500">
<path d="M0 0 C7.1207068 5.41748298 11.58274183 11.3063522 14 20 C15.15362016 30.9290331 13.55496369 38.30016733 7.45703125 47.26953125 C6.97621094 47.84058594 6.49539063 48.41164062 6 49 C5.34 49 4.68 49 4 49 C4 49.66 4 50.32 4 51 C3.34 51 2.68 51 2 51 C2.49113281 51.78117187 2.49113281 51.78117187 2.9921875 52.578125 C4.31089836 55.74712009 4.19340276 58.3298619 4.125 61.75 C4.10695313 62.92046875 4.08890625 64.0909375 4.0703125 65.296875 C4.04710937 66.18890625 4.02390625 67.0809375 4 68 C4.33 66.35 4.66 64.7 5 63 C5.495 64.485 5.495 64.485 6 66 C6.66 65.67 7.32 65.34 8 65 C7.5359375 63.88625 7.5359375 63.88625 7.0625 62.75 C6.711875 61.8425 6.36125 60.935 6 60 C5.61714844 59.09701172 5.61714844 59.09701172 5.2265625 58.17578125 C4.87892111 54.83722513 6.46245985 53.16250904 8.3125 50.4375 C8.94800781 49.48746094 9.58351563 48.53742188 10.23828125 47.55859375 C10.81964844 46.71425781 11.40101563 45.86992187 12 45 C12.66 44.01 13.32 43.02 14 42 C14.66 42 15.32 42 16 42 C16 41.34 16 40.68 16 40 C16.66 40 17.32 40 18 40 C18 39.34 18 38.68 18 38 C27.26152164 33.04448452 35.54226701 31.59758474 46 31 C48.21350557 39.32338736 44.45511015 48.39803396 40.50390625 55.74609375 C36.15992527 62.25642369 29.55881561 66.95874865 22 69 C18.63302191 69.28725268 15.36746789 69.25308736 12 69 C9.0700924 76.2332094 6.40763221 83.57646736 4 91 C4.77085937 91.20496094 5.54171875 91.40992188 6.3359375 91.62109375 C7.33882813 91.89050781 8.34171875 92.15992188 9.375 92.4375 C10.37273437 92.70433594 11.37046875 92.97117187 12.3984375 93.24609375 C15 94 15 94 17 95 C32.06931965 96.47958769 43.87834904 94.55598431 56.4765625 85.91796875 C58 85 58 85 60 85 C58.18012668 91.67286885 53.43057563 95.5621947 47.671875 98.96875 C40.21567144 102.92025863 33.68945166 105.11508133 25.1875 105.1875 C24.43855469 105.20167969 23.68960938 105.21585937 22.91796875 105.23046875 C13.97750886 104.52432801 5.59475786 101.73572379 -2.875 98.9375 C-5.08038975 98.21640902 -7.28610542 97.49631387 -9.4921875 96.77734375 C-10.45495605 96.46015381 -11.41772461 96.14296387 -12.40966797 95.81616211 C-25.54086206 91.67878399 -38.38568737 93.61308683 -50.5 99.6875 C-51.3146875 100.12449219 -52.129375 100.56148438 -52.96875 101.01171875 C-55 102 -55 102 -57 102 C-57 102.66 -57 103.32 -57 104 C-57.99 104 -58.98 104 -60 104 C-58.63055898 101.05043472 -57.12169591 98.47531189 -55 96 C-54.34 96 -53.68 96 -53 96 C-53 95.34 -53 94.68 -53 94 C-51.34765625 92.59765625 -51.34765625 92.59765625 -49.0625 91.0625 C-48.33160156 90.55847656 -47.60070312 90.05445313 -46.84765625 89.53515625 C-39.48892692 85.56810464 -32.79186109 84.53662916 -24.5 84.6875 C-23.61441406 84.68427734 -22.72882813 84.68105469 -21.81640625 84.67773438 C-15.93973104 84.72519651 -10.69372674 85.54763678 -5 87 C-5.59460953 85.08034691 -6.20109261 83.16436921 -6.8125 81.25 C-7.14894531 80.18265625 -7.48539063 79.1153125 -7.83203125 78.015625 C-9.33678819 74.11372817 -9.33678819 74.11372817 -12 71 C-15.11075504 70.30062215 -15.11075504 70.30062215 -18.625 70.125 C-27.23262666 69.10450818 -32.40571884 65.94992166 -38.3125 59.75 C-44.24590187 52.21787596 -46.07791037 43.45831911 -46 34 C-45 33 -45 33 -41.97265625 32.98046875 C-31.47978647 33.53603528 -22.37948029 35.17949279 -14 42 C-9.57013582 46.97692571 -6.82566492 53.02401929 -4 59 C-2.50013727 56.00027454 -2.4951168 54.34485121 -3 51 C-4.42788029 49.29929501 -4.42788029 49.29929501 -6.25 47.6875 C-11.29241239 42.98261217 -13.59594356 38.55736291 -14.37890625 31.6640625 C-14.74900952 20.65647501 -11.97799519 13.06441856 -5.3671875 4.3984375 C-4.69042969 3.70621094 -4.69042969 3.70621094 -4 3 C-3.34 3 -2.68 3 -2 3 C-2 2.34 -2 1.68 -2 1 C-1.34 0.67 -0.68 0.34 0 0 Z M0 38 C-0.33 41.96 -0.66 45.92 -1 50 C-0.34 49.67 0.32 49.34 1 49 C1 45.37 1 41.74 1 38 C0.67 38 0.34 38 0 38 Z M-14 58 C-13 60 -13 60 -13 60 Z M-6 60 C-5 62 -5 62 -5 62 Z M10 61 C11 63 11 63 11 63 Z M-5 62 C-5 63.32 -5 64.64 -5 66 C-5.66 66.66 -6.32 67.32 -7 68 C-5.68 69.32 -4.36 70.64 -3 72 C-3 68.7 -3 65.4 -3 62 C-3.66 62 -4.32 62 -5 62 Z M-10 63 C-9.01 64.485 -9.01 64.485 -8 66 C-7.34 65.67 -6.68 65.34 -6 65 C-7.32 64.34 -8.64 63.68 -10 63 Z " fill="#315A3C" transform="translate(250,109)"/>
<path d="M0 0 C6.76501151 0.05096054 12.57231663 1.07851459 17.8515625 5.578125 C20.43987377 7.29111646 21.92335283 7.32921656 25 7.375 C33.70736459 7.93450937 41.38139594 11.97907008 49 16 C49 16.66 49 17.32 49 18 C49.66 18 50.32 18 51 18 C51 18.66 51 19.32 51 20 C52.32 20.66 53.64 21.32 55 22 C55.2792997 24.98436906 55.33152772 26.51937742 53.6015625 29.02734375 C44.09322949 38.21622684 33.95497811 42.7979562 21.1875 45.9375 C17.74188818 47.08603727 15.55020141 48.6561392 12.69140625 50.82421875 C8.7351665 53.57439927 4.72821965 54.27813057 0 54 C-0.08065117 50.45134864 0.05685873 47.41610225 1 44 C0.24976563 43.84144531 -0.50046875 43.68289063 -1.2734375 43.51953125 C-7.63099208 42.07026503 -13.12529961 40.23108522 -18.84375 37.0859375 C-20.90401116 36.0483422 -22.74824432 35.46058639 -25 35 C-25 35.66 -25 36.32 -25 37 C-25.66 37 -26.32 37 -27 37 C-27 37.66 -27 38.32 -27 39 C-31.58197175 43.18403376 -36.61962402 47 -43 47 C-43.47639388 42.59335664 -42.53001743 39.71999929 -40.8125 35.75 C-38.72999353 30.42722996 -39.12065388 27.27485669 -41.10546875 21.99609375 C-41.70832656 20.65085209 -42.34074092 19.31851816 -43 18 C-43.039992 16.00039988 -43.04346799 13.99952758 -43 12 C-39.14354879 11.77963136 -36.50776784 12.39644899 -33 14 C-33 14.66 -33 15.32 -33 16 C-32.401875 16.268125 -31.80375 16.53625 -31.1875 16.8125 C-29 18 -29 18 -27.5625 19.625 C-26.03850467 21.23439497 -26.03850467 21.23439497 -23.5625 21.25 C-21.26976096 21.02631814 -19.20497429 20.65332571 -17 20 C-17 19.34 -17 18.68 -17 18 C-11.06 15.36 -5.12 12.72 1 10 C0.34 7.03 -0.32 4.06 -1 1 C-0.67 0.67 -0.34 0.34 0 0 Z M38 21 C38 21.99 38 22.98 38 24 C38.99 24 39.98 24 41 24 C40.67 23.01 40.34 22.02 40 21 C39.34 21 38.68 21 38 21 Z M26 25 C27 28 27 28 27 28 Z M27 30 C28 32 28 32 28 32 Z " fill="#295739" transform="translate(244,215)"/>
<path d="M0 0 C5.36876544 5.51789781 8.16550356 10.8390083 8.28515625 18.58984375 C7.97054631 26.75711783 4.52838615 32.19403513 -1.3125 37.75 C-8.35601285 42.26507234 -15.66933892 41.98373702 -23.75 41.3125 C-30.53902392 39.6442795 -34.68423995 34.75708303 -38.75 29.3125 C-41.54224635 23.7280073 -40.71374499 13.5516234 -38.94921875 7.62109375 C-35.9927507 2.42949521 -31.03878322 -1.07027679 -25.75 -3.6875 C-16.63706568 -6.02233566 -8.0383549 -4.93262687 0 0 Z M-28.125 9.25 C-30.75022199 14.19753376 -30.75694768 18.85526608 -29.75 24.3125 C-28.08812955 28.00241575 -26.24285029 30.24721332 -22.75 32.3125 C-17.9203321 33.40223815 -13.21030655 33.5686258 -8.71484375 31.2734375 C-5.55921596 28.74583391 -3.01370048 25.90484519 -2.34375 21.859375 C-2.17397005 16.79427327 -2.16020946 13.25606188 -5.5 9.25 C-8.70836293 5.93631202 -11.51264755 4.42706967 -16.125 4 C-21.21514069 4.43880523 -24.2058956 6.05283589 -28.125 9.25 Z " fill="#396246" transform="translate(330.75,284.6875)"/>
<path d="M0 0 C7.1207068 5.41748298 11.58274183 11.3063522 14 20 C15.15362016 30.9290331 13.55496369 38.30016733 7.45703125 47.26953125 C6.97621094 47.84058594 6.49539063 48.41164062 6 49 C5.34 49 4.68 49 4 49 C4 49.66 4 50.32 4 51 C3.34 51 2.68 51 2 51 C2.32742187 51.55171875 2.65484375 52.1034375 2.9921875 52.671875 C4.16787715 55.38780923 4.20248638 57.30551759 4.125 60.25 C4.10695312 61.14203125 4.08890625 62.0340625 4.0703125 62.953125 C4.04710937 63.62859375 4.02390625 64.3040625 4 65 C2.35 65 0.7 65 -1 65 C-3.05586592 57.54748603 -3.05586592 57.54748603 -2.6875 53.9375 C-3.06075066 50.42894382 -3.73802101 50.01281388 -6.25 47.6875 C-11.29241239 42.98261217 -13.59594356 38.55736291 -14.37890625 31.6640625 C-14.74900952 20.65647501 -11.97799519 13.06441856 -5.3671875 4.3984375 C-4.69042969 3.70621094 -4.69042969 3.70621094 -4 3 C-3.34 3 -2.68 3 -2 3 C-2 2.34 -2 1.68 -2 1 C-1.34 0.67 -0.68 0.34 0 0 Z M0 38 C-0.33 41.96 -0.66 45.92 -1 50 C-0.34 49.67 0.32 49.34 1 49 C1 45.37 1 41.74 1 38 C0.67 38 0.34 38 0 38 Z " fill="#638359" transform="translate(250,109)"/>
<path d="M0 0 C2.21350557 8.32338736 -1.54488985 17.39803396 -5.49609375 24.74609375 C-9.84007473 31.25642369 -16.44118439 35.95874865 -24 38 C-27.36697809 38.28725268 -30.63253211 38.25308736 -34 38 C-34.28875 38.763125 -34.5775 39.52625 -34.875 40.3125 C-36 43 -36 43 -38 46 C-41.05023923 40.75358852 -41.05023923 40.75358852 -40.8125 37.1875 C-40 35 -40 35 -38 34 C-38.309375 33.2575 -38.61875 32.515 -38.9375 31.75 C-39.288125 30.8425 -39.63875 29.935 -40 29 C-40.25523437 28.39800781 -40.51046875 27.79601562 -40.7734375 27.17578125 C-41.12107889 23.83722513 -39.53754015 22.16250904 -37.6875 19.4375 C-37.05199219 18.48746094 -36.41648437 17.53742188 -35.76171875 16.55859375 C-35.18035156 15.71425781 -34.59898437 14.86992187 -34 14 C-33.34 13.01 -32.68 12.02 -32 11 C-31.34 11 -30.68 11 -30 11 C-30 10.34 -30 9.68 -30 9 C-29.34 9 -28.68 9 -28 9 C-28 8.34 -28 7.68 -28 7 C-19.02970366 2.20030897 -10.25818763 -0.32056836 0 0 Z M-36 30 C-35 32 -35 32 -35 32 Z " fill="#49704B" transform="translate(296,140)"/>
<path d="M0 0 C10.49286978 0.55556653 19.59317596 2.19902404 27.97265625 9.01953125 C32.85074708 14.50003692 38.19175858 22.5316112 38.41015625 30.01953125 C37.97265625 33.01953125 37.97265625 33.01953125 35.97265625 35.01953125 C36.29117395 37.12773922 36.29117395 37.12773922 36.97265625 39.01953125 C35.98265625 39.34953125 34.99265625 39.67953125 33.97265625 40.01953125 C33.47765625 41.00953125 33.47765625 41.00953125 32.97265625 42.01953125 C32.43511719 41.05660156 32.43511719 41.05660156 31.88671875 40.07421875 C29.20639524 37.19697352 27.215811 37.42263388 23.34765625 37.14453125 C14.74002959 36.12403943 9.56693741 32.96945291 3.66015625 26.76953125 C-2.27324562 19.23740721 -4.10525412 10.47785036 -4.02734375 1.01953125 C-3.02734375 0.01953125 -3.02734375 0.01953125 0 0 Z M27.97265625 25.01953125 C28.97265625 27.01953125 28.97265625 27.01953125 28.97265625 27.01953125 Z M35.97265625 27.01953125 C36.97265625 29.01953125 36.97265625 29.01953125 36.97265625 29.01953125 Z M31.97265625 30.01953125 C32.96265625 31.50453125 32.96265625 31.50453125 33.97265625 33.01953125 C34.63265625 32.68953125 35.29265625 32.35953125 35.97265625 32.01953125 C34.65265625 31.35953125 33.33265625 30.69953125 31.97265625 30.01953125 Z " fill="#4C724E" transform="translate(208.02734375,141.98046875)"/>
<path d="M0 0 C1.375 2.0625 1.375 2.0625 1.375 4.125 C0.12855723 6.53998287 -1.36332103 7.60335228 -3.625 9.0625 C-4.16125 8.77375 -4.6975 8.485 -5.25 8.1875 C-10.44960855 5.72452753 -14.83274259 4.53593114 -20.625 5.0625 C-23.38941969 6.47009341 -23.38941969 6.47009341 -25.625 8.0625 C-26.285 8.0625 -26.945 8.0625 -27.625 8.0625 C-29.95928497 15.21124771 -30.42998744 20.87471969 -27.625 28.0625 C-26.965 28.0625 -26.305 28.0625 -25.625 28.0625 C-25.625 28.7225 -25.625 29.3825 -25.625 30.0625 C-22.37030985 31.14739672 -19.91956791 31.19573992 -16.5 31.1875 C-14.88738281 31.19136719 -14.88738281 31.19136719 -13.2421875 31.1953125 C-10.69843604 31.35938975 -10.69843604 31.35938975 -9.625 30.0625 C-9.41611292 28.06646794 -9.25724523 26.06507059 -9.125 24.0625 C-8.73611111 18.17361111 -8.73611111 18.17361111 -7.625 17.0625 C-4.655 17.0625 -1.685 17.0625 1.375 17.0625 C1.375 23.3325 1.375 29.6025 1.375 36.0625 C-7.22241716 41.43588572 -14.77699032 42.17853887 -24.625 41.0625 C-30.06401497 39.54313178 -34.11050938 36.48071678 -37.625 32.0625 C-41.20090443 24.97053892 -42.30856002 17.94693234 -40.36328125 10.21875 C-39.25377959 6.9783007 -37.7984064 4.71133906 -35.625 2.0625 C-34.965 2.0625 -34.305 2.0625 -33.625 2.0625 C-33.625 1.4025 -33.625 0.7425 -33.625 0.0625 C-23.28741063 -6.34680541 -10.24240317 -7.559869 0 0 Z " fill="#2A5938" transform="translate(283.625,284.9375)"/>
<path d="M0 0 C2.64 0 5.28 0 8 0 C10.1015625 2.30859375 10.1015625 2.30859375 11.625 5.4375 C12.18574219 6.52417969 12.74648438 7.61085938 13.32421875 8.73046875 C13.87722656 9.80941406 14.43023437 10.88835937 15 12 C16.11726024 13.7683788 17.2600794 15.52109434 18.4375 17.25 C18.93121094 17.97703125 19.42492187 18.7040625 19.93359375 19.453125 C20.28550781 19.96359375 20.63742187 20.4740625 21 21 C21.99 19.02 22.98 17.04 24 15 C24.66 15 25.32 15 26 15 C26.103125 14.44699219 26.20625 13.89398438 26.3125 13.32421875 C27.14743784 10.50155959 28.46021649 8.31834961 30 5.8125 C30.53625 4.93207031 31.0725 4.05164063 31.625 3.14453125 C33 1 33 1 34 0 C36.31 0 38.62 0 41 0 C41 13.2 41 26.4 41 40 C37 41 37 41 33 39 C32.67 32.73 32.34 26.46 32 20 C29.24247393 24.92506443 29.24247393 24.92506443 26.52661133 29.87304688 C23.70980417 34.73382344 23.70980417 34.73382344 20.5 35.9375 C16.46366181 34.42387318 15.17296483 31.16408167 13.1875 27.5 C11.805625 25.025 10.42375 22.55 9 20 C8.67 26.6 8.34 33.2 8 40 C5.36 40 2.72 40 0 40 C0 26.8 0 13.6 0 0 Z " fill="#43664E" transform="translate(285,339)"/>
<path d="M0 0 C2.57161458 0.03255208 5.14322917 0.06510417 7.71484375 0.09765625 C12.30836609 9.11221516 16.67314808 18.19591078 20.79711914 27.43408203 C21.67155784 29.39064799 22.55334803 31.34379755 23.43554688 33.296875 C23.99652877 34.54798212 24.55709268 35.79927676 25.1171875 37.05078125 C25.61726318 38.16614258 26.11733887 39.28150391 26.63256836 40.43066406 C27.71484375 43.09765625 27.71484375 43.09765625 27.71484375 45.09765625 C24.33607223 45.38291839 21.0846166 45.53246565 17.71484375 45.09765625 C14.69447339 41.89423314 14.59926249 39.51974997 13.71484375 35.09765625 C3.31984375 35.59265625 3.31984375 35.59265625 -7.28515625 36.09765625 C-8.60515625 39.06765625 -9.92515625 42.03765625 -11.28515625 45.09765625 C-14.58515625 45.09765625 -17.88515625 45.09765625 -21.28515625 45.09765625 C-20.71680708 40.43157973 -19.41576511 36.86936605 -17.34765625 32.66015625 C-13.51960304 24.74224974 -10.03637036 16.68744976 -6.57446289 8.60375977 C-6.16188232 7.64526123 -5.74930176 6.6867627 -5.32421875 5.69921875 C-4.95506348 4.83635254 -4.5859082 3.97348633 -4.20556641 3.08447266 C-2.83273815 0.12105719 -2.83273815 0.12105719 0 0 Z M1.71484375 13.09765625 C1.0388906 14.50991551 0.37444316 15.9276853 -0.28515625 17.34765625 C-0.65640625 18.1365625 -1.02765625 18.92546875 -1.41015625 19.73828125 C-2.51696877 22.30332195 -2.51696877 22.30332195 -2.28515625 26.09765625 C1.34484375 26.09765625 4.97484375 26.09765625 8.71484375 26.09765625 C8.07049102 24.30545657 7.42431423 22.51391261 6.77734375 20.72265625 C6.41769531 19.72492188 6.05804688 18.7271875 5.6875 17.69921875 C4.79135083 15.1626146 4.79135083 15.1626146 3.71484375 13.09765625 C3.05484375 13.09765625 2.39484375 13.09765625 1.71484375 13.09765625 Z " fill="#345E41" transform="translate(215.28515625,280.90234375)"/>
<path d="M0 0 C3.70818297 -0.08756305 7.41609763 -0.14058015 11.125 -0.1875 C12.17171875 -0.21263672 13.2184375 -0.23777344 14.296875 -0.26367188 C19.9412435 -0.31725765 24.17753493 -0.30370172 29 3 C32.26331306 6.52094303 33.28814732 9.30393216 33.5 14 C33.27594762 19.72195313 30.99521319 23.00478681 27 27 C27.5053125 27.77085937 28.010625 28.54171875 28.53125 29.3359375 C29.1809375 30.33882813 29.830625 31.34171875 30.5 32.375 C31.47453125 33.87160156 31.47453125 33.87160156 32.46875 35.3984375 C34 38 34 38 34 40 C30.52025513 40.55703426 27.45576558 40.77651875 24 40 C21.27552262 37.36598379 19.53339966 34.45326589 18 31 C18 30.34 18 29.68 18 29 C15.03 29 12.06 29 9 29 C9.020625 30.44375 9.04125 31.8875 9.0625 33.375 C9.125 37.75 9.125 37.75 8 40 C5.36 40 2.72 40 0 40 C-0.9608269 35.27027298 -1.06092503 30.77522711 -0.87890625 25.9765625 C-0.85529526 25.23038666 -0.83168427 24.48421082 -0.80735779 23.71542358 C-0.73129587 21.35172722 -0.64702781 18.98840723 -0.5625 16.625 C-0.50922161 15.01434082 -0.45648169 13.40366373 -0.40429688 11.79296875 C-0.2757595 7.86174462 -0.13986598 3.93083672 0 0 Z M8 8 C8.33 12.29 8.66 16.58 9 21 C15.67103967 21.31298533 15.67103967 21.31298533 22.125 20 C24.3339602 17.64377579 24.28483861 16.93823726 24.3125 13.8125 C24.209375 12.554375 24.10625 11.29625 24 10 C23.34 10 22.68 10 22 10 C22 9.34 22 8.68 22 8 C17.49048355 6.90678389 12.27999354 5.86000323 8 8 Z " fill="#2C593A" transform="translate(246,339)"/>
<path d="M0 0 C3.3 0 6.6 0 10 0 C10.31710938 0.82757813 10.63421875 1.65515625 10.9609375 2.5078125 C14.56330367 11.72270497 18.54106904 20.71617687 22.74755859 29.67236328 C23.16859863 30.57970215 23.58963867 31.48704102 24.0234375 32.421875 C24.40419434 33.23237305 24.78495117 34.04287109 25.17724609 34.87792969 C26 37 26 37 26 40 C23.03 40 20.06 40 17 40 C14 34.375 14 34.375 14 31 C3.84883584 30.21417246 3.84883584 30.21417246 -4.92578125 33.84765625 C-5.62733611 35.29413481 -6.28371005 36.76365126 -6.88671875 38.25390625 C-8 40 -8 40 -10.26953125 40.52734375 C-12.56150618 40.50269886 -14.73028757 40.29126783 -17 40 C-14.4753715 31.70868409 -10.95427651 23.93515948 -7.375 16.0625 C-6.77044033 14.72348466 -6.16627073 13.38429314 -5.5625 12.04492188 C-1.28706631 2.57413262 -1.28706631 2.57413262 0 0 Z M4 12 C2.03810791 15.6678852 0.60698743 18.87248551 0 23 C2.97 23.33 5.94 23.66 9 24 C10.3023998 21.98066862 10.3023998 21.98066862 9.22265625 19.6171875 C8.83980469 18.71226562 8.45695312 17.80734375 8.0625 16.875 C7.68222656 15.96492188 7.30195313 15.05484375 6.91015625 14.1171875 C6.60980469 13.41851562 6.30945313 12.71984375 6 12 C5.34 12 4.68 12 4 12 Z " fill="#325D3F" transform="translate(217,339)"/>
<path d="M0 0 C8.25 0 16.5 0 25 0 C25.81036857 8.10368567 26.13746244 15.60457367 25.9375 23.6875 C25.93556641 24.87150391 25.93363281 26.05550781 25.93164062 27.27539062 C25.75749346 33.88927755 25.29038677 38.09006036 20.47485352 42.83911133 C15.6833664 46.61059308 8.76343937 45.47101888 3 45 C0.05101756 44.04637475 -0.80892067 43.31628386 -3 41 C-4.1875 38.5625 -4.1875 38.5625 -4 36 C-1.5625 33.1875 -1.5625 33.1875 1 31 C2.0209375 31.99 2.0209375 31.99 3.0625 33 C6.64457375 35.43885872 8.75519536 35.33292585 13 35 C14.98911307 29.22843962 15.2451155 24.13757259 15.125 18.0625 C15.11597656 17.18787109 15.10695312 16.31324219 15.09765625 15.41210938 C15.0742957 13.27461936 15.03843247 11.13727214 15 9 C10.05 8.67 5.1 8.34 0 8 C0 5.36 0 2.72 0 0 Z " fill="#2E5A3B" transform="translate(166,281)"/>
<path d="M0 0 C9.9 0 19.8 0 30 0 C29 7 29 7 28 8 C26.5112814 8.08669432 25.018555 8.10703494 23.52734375 8.09765625 C22.62822266 8.09443359 21.72910156 8.09121094 20.80273438 8.08789062 C19.85720703 8.07951172 18.91167969 8.07113281 17.9375 8.0625 C16.98810547 8.05798828 16.03871094 8.05347656 15.06054688 8.04882812 C12.70696935 8.0370011 10.35351523 8.02052025 8 8 C8.33 10.64 8.66 13.28 9 16 C14.94 16.33 20.88 16.66 27 17 C27 19.64 27 22.28 27 25 C24.20865148 25.19425873 21.41716313 25.38069517 18.625 25.5625 C17.8309375 25.61857422 17.036875 25.67464844 16.21875 25.73242188 C10.2265625 26.11328125 10.2265625 26.11328125 8 25 C8 29.95 8 34.9 8 40 C5.36 40 2.72 40 0 40 C0 26.8 0 13.6 0 0 Z " fill="#285436" transform="translate(174,339)"/>
<path d="M0 0 C1.32 0 2.64 0 4 0 C4 42.57 4 85.14 4 129 C2.68 129 1.36 129 0 129 C0 86.43 0 43.86 0 0 Z " fill="#4B6A54" transform="translate(178,138)"/>
<path d="M0 0 C1.32 0 2.64 0 4 0 C4 42.57 4 85.14 4 129 C2.68 129 1.36 129 0 129 C0 86.43 0 43.86 0 0 Z " fill="#758F7A" transform="translate(318,138)"/>
<path d="M0 0 C3.3 0 6.6 0 10 0 C10.67679658 1.725227 11.34102 3.45538939 12 5.1875 C12.37125 6.15042969 12.7425 7.11335938 13.125 8.10546875 C13.97636772 10.92182358 14.17072647 13.08164439 14 16 C13.34 16 12.68 16 12 16 C11.67 15.34 11.34 14.68 11 14 C9.35 14.33 7.7 14.66 6 15 C6 14.01 6 13.02 6 12 C5.34 12 4.68 12 4 12 C3.71125 12.94875 3.4225 13.8975 3.125 14.875 C2 18 2 18 0 20 C0 18.68 0 17.36 0 16 C-0.61875 16.309375 -1.2375 16.61875 -1.875 16.9375 C-3.25 17.625 -4.625 18.3125 -6 19 C-5.67 20.32 -5.34 21.64 -5 23 C-6.32 23.33 -7.64 23.66 -9 24 C-8.979375 25.299375 -8.95875 26.59875 -8.9375 27.9375 C-8.91600546 29.29165633 -8.92851801 30.64756083 -9 32 C-9.495 32.495 -9.495 32.495 -10 33 C-9.01 33 -8.02 33 -7 33 C-6.375 34.8125 -6.375 34.8125 -6 37 C-6.66 37.99 -7.32 38.98 -8 40 C-11.00798865 40.40721868 -13.97321367 40.12971941 -17 40 C-14.4753715 31.70868409 -10.95427651 23.93515948 -7.375 16.0625 C-6.77044033 14.72348466 -6.16627073 13.38429314 -5.5625 12.04492188 C-1.28706631 2.57413262 -1.28706631 2.57413262 0 0 Z " fill="#3C6147" transform="translate(217,339)"/>
<path d="M0 0 C6.80368574 3.53268298 10.94618813 7.0672484 13.515625 14.6328125 C14.96133423 21.69813339 13.98686539 28.14705524 10.0625 34.1875 C7.42105263 37.78947368 7.42105263 37.78947368 5 39 C2.7522025 36.94766315 1.9977758 35.99332739 1 33 C0.67 33.99 0.34 34.98 0 36 C-1.32 35.01 -2.64 34.02 -4 33 C-2 31 0 29 2 27 C2.67873559 21.39558329 2.91633586 16.51237447 -0.5 11.8125 C-1.325 10.884375 -2.15 9.95625 -3 9 C-1.35 9 0.3 9 2 9 C2.33 10.65 2.66 12.3 3 14 C3.33 13.34 3.66 12.68 4 12 C4.99 12 5.98 12 7 12 C7 10.68 7 9.36 7 8 C6.34 8 5.68 8 5 8 C0 2.52380952 0 2.52380952 0 0 Z " fill="#2E5A3B" transform="translate(325,282)"/>
<path d="M0 0 C1.375 2.0625 1.375 2.0625 1.375 4.125 C0.12855723 6.53998287 -1.36332103 7.60335228 -3.625 9.0625 C-4.16125 8.77375 -4.6975 8.485 -5.25 8.1875 C-10.44960855 5.72452753 -14.83274259 4.53593114 -20.625 5.0625 C-23.38941969 6.47009341 -23.38941969 6.47009341 -25.625 8.0625 C-26.285 8.0625 -26.945 8.0625 -27.625 8.0625 C-28.285 10.3725 -28.945 12.6825 -29.625 15.0625 C-30.75 13.3125 -30.75 13.3125 -31.625 11.0625 C-30.68273345 8.39274478 -29.63884202 7.07634202 -27.625 5.0625 C-27.94541397 2.45969432 -27.94541397 2.45969432 -28.625 0.0625 C-28.728125 0.701875 -28.83125 1.34125 -28.9375 2 C-29.164375 2.680625 -29.39125 3.36125 -29.625 4.0625 C-30.615 4.3925 -31.605 4.7225 -32.625 5.0625 C-33.285 6.0525 -33.945 7.0425 -34.625 8.0625 C-34.955 6.0825 -35.285 4.1025 -35.625 2.0625 C-34.965 2.0625 -34.305 2.0625 -33.625 2.0625 C-33.625 1.4025 -33.625 0.7425 -33.625 0.0625 C-23.28741063 -6.34680541 -10.24240317 -7.559869 0 0 Z " fill="#396245" transform="translate(283.625,284.9375)"/>
<path d="M0 0 C0.99 0 1.98 0 3 0 C6.34858901 4.02153932 6.40099328 7.91727223 6.29296875 12.92578125 C6.28872391 13.67337204 6.28447906 14.42096283 6.28010559 15.19120789 C6.26339056 17.56534732 6.22575347 19.93861967 6.1875 22.3125 C6.17244381 23.92772206 6.15875703 25.54295751 6.14648438 27.15820312 C6.1135108 31.10579988 6.06177969 35.05275322 6 39 C2.28125 40.1171875 2.28125 40.1171875 -0.25 39.0625 C-1.11625 38.5365625 -1.11625 38.5365625 -2 38 C-1.85845864 35.43719792 -1.71191438 32.87484515 -1.5625 30.3125 C-1.52318359 29.59126953 -1.48386719 28.87003906 -1.44335938 28.12695312 C-1.21814322 24.33292718 -0.87160695 20.71348508 0 17 C-1.98 17.33 -3.96 17.66 -6 18 C-6 17.34 -6 16.68 -6 16 C-5.34 16 -4.68 16 -4 16 C-4.2475 15.13375 -4.2475 15.13375 -4.5 14.25 C-5 12 -5 12 -5 8 C-4.01 7.67 -3.02 7.34 -2 7 C-1.855625 6.030625 -1.71125 5.06125 -1.5625 4.0625 C-1 1 -1 1 0 0 Z " fill="#245433" transform="translate(320,340)"/>
<path d="M0 0 C9.9 0 19.8 0 30 0 C29 7 29 7 28 8 C26.5112814 8.08669432 25.018555 8.10703494 23.52734375 8.09765625 C22.62822266 8.09443359 21.72910156 8.09121094 20.80273438 8.08789062 C19.85720703 8.07951172 18.91167969 8.07113281 17.9375 8.0625 C16.98810547 8.05798828 16.03871094 8.05347656 15.06054688 8.04882812 C12.70696935 8.0370011 10.35351523 8.02052025 8 8 C8.33 10.64 8.66 13.28 9 16 C14.94 16.33 20.88 16.66 27 17 C27 19.31 27 21.62 27 24 C26.67 24 26.34 24 26 24 C26 22.02 26 20.04 26 18 C20.06 18 14.12 18 8 18 C6.02 14.535 6.02 14.535 4 11 C3.34 11 2.68 11 2 11 C1.34 11.66 0.68 12.32 0 13 C0 8.71 0 4.42 0 0 Z " fill="#255333" transform="translate(174,339)"/>
<path d="M0 0 C1.010625 0.0825 2.02125 0.165 3.0625 0.25 C5.35165762 3.68373643 5.19302538 4.29330538 4.625 8.1875 C4.14354611 11.54754137 4.02860223 13.99737271 5.0625 17.25 C4.0725 17.25 3.0825 17.25 2.0625 17.25 C2.0625 24.51 2.0625 31.77 2.0625 39.25 C0.0825 39.25 -1.8975 39.25 -3.9375 39.25 C-3.96214849 33.85653012 -3.98033531 28.46309275 -3.99243164 23.06958008 C-3.99747231 21.23331125 -4.00430477 19.39704646 -4.01293945 17.56079102 C-4.02501672 14.92723599 -4.03073081 12.29373384 -4.03515625 9.66015625 C-4.04031754 8.83411392 -4.04547882 8.00807159 -4.05079651 7.15699768 C-4.05099205 5.18763632 -3.99954152 3.21838386 -3.9375 1.25 C-2.9375 0.25 -2.9375 0.25 0 0 Z " fill="#255434" transform="translate(289.9375,338.75)"/>
<path d="M0 0 C1.32 0 2.64 0 4 0 C4 41.25 4 82.5 4 125 C3.67 125 3.34 125 3 125 C2.67 97.61 2.34 70.22 2 42 C1.34 42.66 0.68 43.32 0 44 C0 29.48 0 14.96 0 0 Z " fill="#68826C" transform="translate(178,138)"/>
<path d="M0 0 C3.3 0 6.6 0 10 0 C12.10814567 4.21629134 12.17700355 6.39790775 12 11 C10.68 10.01 9.36 9.02 8 8 C7.01 9.485 7.01 9.485 6 11 C5.34 11 4.68 11 4 11 C4.061875 12.11375 4.061875 12.11375 4.125 13.25 C3.99456907 16.11948044 3.53915977 17.60575147 2 20 C1.34 20.33 0.68 20.66 0 21 C-0.66 21.99 -1.32 22.98 -2 24 C-2.33 22.35 -2.66 20.7 -3 19 C-3.33 19.99 -3.66 20.98 -4 22 C-4.66 22 -5.32 22 -6 22 C-6.33 22.99 -6.66 23.98 -7 25 C-7.66 24.67 -8.32 24.34 -9 24 C-7.61793679 15.24693302 -3.88066808 7.87547346 0 0 Z " fill="#2F5A3C" transform="translate(213,281)"/>
<path d="M0 0 C0.33 0.99 0.66 1.98 1 3 C1.66 3 2.32 3 3 3 C3.33 3.99 3.66 4.98 4 6 C3.67 6.33 3.34 6.66 3 7 C2.92851801 8.35243917 2.91600546 9.70834367 2.9375 11.0625 C2.958125 12.361875 2.97875 13.66125 3 15 C4.32 14.34 5.64 13.68 7 13 C7 14.32 7 15.64 7 17 C7.66 16.01 8.32 15.02 9 14 C8.979375 15.0725 8.95875 16.145 8.9375 17.25 C8.9857984 20.14790424 9.13155885 22.28612141 10 25 C9.34 24.67 8.68 24.34 8 24 C7.67 24.66 7.34 25.32 7 26 C7.66 26 8.32 26 9 26 C9.0270043 27.45823212 9.04639787 28.91660675 9.0625 30.375 C9.07410156 31.18710937 9.08570313 31.99921875 9.09765625 32.8359375 C9 35 9 35 8 37 C5.36 37 2.72 37 0 37 C-0.91014662 32.44620241 -1.05131709 28.26874841 -0.87890625 23.6328125 C-0.85529526 22.95322479 -0.83168427 22.27363708 -0.80735779 21.57345581 C-0.73138273 19.4237221 -0.64707883 17.27441063 -0.5625 15.125 C-0.50921284 13.65887415 -0.45647301 12.19272831 -0.40429688 10.7265625 C-0.27585887 7.15078848 -0.13995444 3.57534393 0 0 Z M9 19 C10.32 19.33 11.64 19.66 13 20 C11.68 20.33 10.36 20.66 9 21 C9 20.34 9 19.68 9 19 Z " fill="#346042" transform="translate(246,342)"/>
<path d="M0 0 C0.86625 0.804375 1.7325 1.60875 2.625 2.4375 C6.51566283 5.6935157 10.01182906 6 15 6 C15.66 5.01 16.32 4.02 17 3 C19 4 19 4 21 6 C20.84713358 8.98089524 20.50047665 10.49711721 18.375 12.6328125 C13.48648705 15.44692357 7.44812174 14.56817029 2 14 C-0.9405433 13.03537733 -1.81133742 12.31372901 -4 10 C-5.1875 7.5625 -5.1875 7.5625 -5 5 C-2.5625 2.1875 -2.5625 2.1875 0 0 Z " fill="#3C5D46" transform="translate(167,312)"/>
<path d="M0 0 C0 0.33 0 0.66 0 1 C-1.65 1.33 -3.3 1.66 -5 2 C-5 3.65 -5 5.3 -5 7 C-2.69 7 -0.38 7 2 7 C2 7.33 2 7.66 2 8 C0.40285156 8.11214844 0.40285156 8.11214844 -1.2265625 8.2265625 C-11.61907228 9.11325846 -19.62366265 11.44464063 -29 16 C-29.99 16.33 -30.98 16.66 -32 17 C-32 17.66 -32 18.32 -32 19 C-32.99 19 -33.98 19 -35 19 C-33.63055898 16.05043472 -32.12169591 13.47531189 -30 11 C-29.34 11 -28.68 11 -28 11 C-28 10.34 -28 9.68 -28 9 C-19.54916476 1.82777813 -10.8928888 -0.61400417 0 0 Z " fill="#466950" transform="translate(225,194)"/>
<path d="M0 0 C1.23556641 0.01740234 1.23556641 0.01740234 2.49609375 0.03515625 C3.32238281 0.04417969 4.14867187 0.05320312 5 0.0625 C5.63808594 0.07410156 6.27617187 0.08570313 6.93359375 0.09765625 C7.02046871 3.22248187 7.07393943 6.34699871 7.12109375 9.47265625 C7.15879883 10.80683594 7.15879883 10.80683594 7.19726562 12.16796875 C7.21176758 13.44414062 7.21176758 13.44414062 7.2265625 14.74609375 C7.25012817 15.92437744 7.25012817 15.92437744 7.27416992 17.12646484 C7.16177979 17.77695801 7.04938965 18.42745117 6.93359375 19.09765625 C3.7056782 21.24959995 2.64958566 21.29852068 -1.06640625 21.09765625 C-3.12351975 14.41203737 -3.54708139 8.0842135 -3.06640625 1.09765625 C-2.06640625 0.09765625 -2.06640625 0.09765625 0 0 Z " fill="#265334" transform="translate(278.06640625,301.90234375)"/>
<path d="M0 0 C1.32 0 2.64 0 4 0 C4.33 1.98 4.66 3.96 5 6 C5.598125 6.0825 6.19625 6.165 6.8125 6.25 C9.5966296 7.20455872 10.43311142 8.57132271 12 11 C11.34 11 10.68 11 10 11 C10 11.66 10 12.32 10 13 C11.65 12.34 13.3 11.68 15 11 C15 11.99 15 12.98 15 14 C9.72 14 4.44 14 -1 14 C-0.67 14.99 -0.34 15.98 0 17 C-0.33 17.66 -0.66 18.32 -1 19 C-3.31 18.34 -5.62 17.68 -8 17 C-7.67 16.34 -7.34 15.68 -7 15 C-6.34 15.33 -5.68 15.66 -5 16 C-5.185625 15.05125 -5.37125 14.1025 -5.5625 13.125 C-6 10 -6 10 -5 8 C-4.01 7.67 -3.02 7.34 -2 7 C-1.855625 6.030625 -1.71125 5.06125 -1.5625 4.0625 C-1 1 -1 1 0 0 Z " fill="#265536" transform="translate(213,355)"/>
<path d="M0 0 C0.33 0 0.66 0 1 0 C1.46753711 6.57149385 1.46809228 10.74342084 -3 16 C-3.66 16.66 -4.32 17.32 -5 18 C-4.4946875 18.77085937 -3.989375 19.54171875 -3.46875 20.3359375 C-2.8190625 21.33882813 -2.169375 22.34171875 -1.5 23.375 C-0.8503125 24.37273437 -0.200625 25.37046875 0.46875 26.3984375 C2 29 2 29 2 31 C-1.47974487 31.55703426 -4.54423442 31.77651875 -8 31 C-10.72447738 28.36598379 -12.46660034 25.45326589 -14 22 C-14 21.34 -14 20.68 -14 20 C-15.32 19.67 -16.64 19.34 -18 19 C-15.6875 18.375 -15.6875 18.375 -13 18 C-12.01 18.66 -11.02 19.32 -10 20 C-9.59007812 19.3503125 -9.18015625 18.700625 -8.7578125 18.03125 C-8.21898437 17.1959375 -7.68015625 16.360625 -7.125 15.5 C-6.59132813 14.6646875 -6.05765625 13.829375 -5.5078125 12.96875 C-5.01023437 12.3190625 -4.51265625 11.669375 -4 11 C-3.34 11 -2.68 11 -2 11 C-1.855625 10.113125 -1.71125 9.22625 -1.5625 8.3125 C-1.08980022 5.52882354 -0.56929815 2.76516243 0 0 Z " fill="#44664C" transform="translate(278,348)"/>
<path d="M0 0 C0.66 0 1.32 0 2 0 C2 0.66 2 1.32 2 2 C5.22282413 3.07427471 7.61511153 3.1332963 11 3.125 C12.051875 3.12757813 13.10375 3.13015625 14.1875 3.1328125 C17.08126878 3.12353635 17.08126878 3.12353635 20 2 C20.33 4.64 20.66 7.28 21 10 C21.99 10.33 22.98 10.66 24 11 C19.70953177 13.09923494 15.75394488 13.33428015 11.0625 13.3125 C10.02706055 13.33666992 10.02706055 13.33666992 8.97070312 13.36132812 C4.23344429 13.36581842 1.05764447 12.40664672 -3 10 C-3 9.67 -3 9.34 -3 9 C-1.02 8.67 0.96 8.34 3 8 C3.33 8.99 3.66 9.98 4 11 C6.01508358 11.73323796 6.01508358 11.73323796 8 12 C8 11.01 8 10.02 8 9 C7.34 8.67 6.68 8.34 6 8 C6 7.34 6 6.68 6 6 C4.02 5.34 2.04 4.68 0 4 C0 2.68 0 1.36 0 0 Z " fill="#3D6349" transform="translate(256,313)"/>
<path d="M0 0 C1.134375 0.020625 2.26875 0.04125 3.4375 0.0625 C3.4375 2.0425 3.4375 4.0225 3.4375 6.0625 C1.9375 4.6875 1.9375 4.6875 0.4375 3.0625 C0.4375 2.4025 0.4375 1.7425 0.4375 1.0625 C-0.5525 1.3925 -1.5425 1.7225 -2.5625 2.0625 C-3.24189174 4.05821323 -3.90811559 6.05844773 -4.5625 8.0625 C-5.5525 8.7225 -6.5425 9.3825 -7.5625 10.0625 C-7.211875 10.84625 -6.86125 11.63 -6.5 12.4375 C-6.190625 13.30375 -5.88125 14.17 -5.5625 15.0625 C-6.5625 17.0625 -6.5625 17.0625 -7.5625 18.0625 C-5.9125 18.0625 -4.2625 18.0625 -2.5625 18.0625 C-2.8925 23.6725 -3.2225 29.2825 -3.5625 35.0625 C-3.8925 35.0625 -4.2225 35.0625 -4.5625 35.0625 C-4.8925 30.1125 -5.2225 25.1625 -5.5625 20.0625 C-8.2025 24.6825 -10.8425 29.3025 -13.5625 34.0625 C-14.2225 32.7425 -14.8825 31.4225 -15.5625 30.0625 C-14.5725 29.7325 -13.5825 29.4025 -12.5625 29.0625 C-12.2325 26.7525 -11.9025 24.4425 -11.5625 22.0625 C-13.2125 22.3925 -14.8625 22.7225 -16.5625 23.0625 C-16.253125 22.299375 -15.94375 21.53625 -15.625 20.75 C-14.88356407 18.87460323 -14.20021783 16.97565348 -13.5625 15.0625 C-12.9025 15.0625 -12.2425 15.0625 -11.5625 15.0625 C-11.459375 14.50949219 -11.35625 13.95648438 -11.25 13.38671875 C-10.41506216 10.56405959 -9.10228351 8.38084961 -7.5625 5.875 C-6.758125 4.55435547 -6.758125 4.55435547 -5.9375 3.20703125 C-3.92541652 0.06886696 -3.92541652 0.06886696 0 0 Z " fill="#3B6146" transform="translate(322.5625,338.9375)"/>
<path d="M0 0 C-1.82601457 6.69538675 -6.59950156 10.56973786 -12.36328125 14.00390625 C-22.62066165 19.47578018 -22.62066165 19.47578018 -29 19 C-27.68 18.67 -26.36 18.34 -25 18 C-25 17.34 -25 16.68 -25 16 C-22.69 14.68 -20.38 13.36 -18 12 C-18.57524414 12.16749756 -19.15048828 12.33499512 -19.74316406 12.50756836 C-22.01603339 13.00349842 -23.79746603 13.03653641 -26.109375 12.87890625 C-26.86347656 12.83056641 -27.61757813 12.78222656 -28.39453125 12.73242188 C-29.17183594 12.67634766 -29.94914062 12.62027344 -30.75 12.5625 C-31.54277344 12.51029297 -32.33554687 12.45808594 -33.15234375 12.40429688 C-35.10193997 12.27510676 -37.05102886 12.13830035 -39 12 C-39 11.67 -39 11.34 -39 11 C-37.91203125 10.98582031 -36.8240625 10.97164062 -35.703125 10.95703125 C-23.34195546 10.62405145 -13.86039822 8.0055473 -3.5234375 0.91796875 C-2 0 -2 0 0 0 Z " fill="#55725E" transform="translate(310,194)"/>
<path d="M0 0 C0.66 0 1.32 0 2 0 C2 7.26 2 14.52 2 22 C-2 23 -2 23 -6 21 C-5.67 15.72 -5.34 10.44 -5 5 C-4.01 5 -3.02 5 -2 5 C-1.34 3.35 -0.68 1.7 0 0 Z " fill="#285336" transform="translate(324,357)"/>
<path d="M0 0 C0.71607422 -0.02900391 1.43214844 -0.05800781 2.16992188 -0.08789062 C5.74113318 -0.13091727 7.67833031 0.02242491 10.56640625 2.203125 C12.0625 4.3125 12.0625 4.3125 12.0625 6.375 C10.81605723 8.78998287 9.32417897 9.85335228 7.0625 11.3125 C4.89358989 10.34022995 3.3113356 9.6028082 1.75 7.78125 C-0.51594778 5.80903619 -2.16031102 5.81751227 -5.125 5.625 C-6.02605469 5.55925781 -6.92710937 5.49351562 -7.85546875 5.42578125 C-8.54253906 5.38839844 -9.22960937 5.35101563 -9.9375 5.3125 C-10.2675 3.9925 -10.5975 2.6725 -10.9375 1.3125 C-7.26556862 0.08852287 -3.82666441 0.05138762 0 0 Z " fill="#265434" transform="translate(272.9375,282.6875)"/>
<path d="M0 0 C3.85645121 -0.22036864 6.49223216 0.39644899 10 2 C10 2.66 10 3.32 10 4 C10.598125 4.2475 11.19625 4.495 11.8125 4.75 C14.28647521 6.16370012 15.43370255 7.65055383 17 10 C14 11 14 11 12.0625 10.4375 C9.97019732 9.81459084 9.97019732 9.81459084 7.875 10.6875 C5.67692399 12.22615321 5.10485506 13.59962904 4 16 C-0.59225513 5.62642369 -0.59225513 5.62642369 0 0 Z " fill="#396047" transform="translate(201,227)"/>
<path d="M0 0 C0.33 0 0.66 0 1 0 C1.33 20.79 1.66 41.58 2 63 C1.01 63 0.02 63 -1 63 C-1.02312737 54.93347826 -1.04091709 46.86697028 -1.05181217 38.80042362 C-1.05704014 35.05516963 -1.06413622 31.30993824 -1.07543945 27.56469727 C-1.08627141 23.95318313 -1.09227749 20.34169079 -1.09487724 16.73016167 C-1.09673094 15.34939671 -1.10035049 13.968633 -1.10573006 12.58787727 C-1.11294447 10.66024048 -1.11340809 8.73258193 -1.11352539 6.80493164 C-1.115746 5.70572891 -1.11796661 4.60652618 -1.12025452 3.47401428 C-1 1 -1 1 0 0 Z " fill="#2C5038" transform="translate(320,204)"/>
<path d="M0 0 C2.95061143 -0.31898502 4.44098326 -0.4433581 6.8125 1.4375 C8.5889962 5.27099179 8.57166002 8.84593716 8 13 C6.6875 15.5625 6.6875 15.5625 5 17 C4.01 17 3.02 17 2 17 C-1.10359396 11.95665982 -1.60014069 7.77058356 -1 2 C-0.67 1.34 -0.34 0.68 0 0 Z " fill="#295838" transform="translate(292,293)"/>
<path d="M0 0 C3.73829578 4.29904015 7 10.24928075 7 16 C4.03 16 1.06 16 -2 16 C-5 10.375 -5 10.375 -5 7 C-14.405 7.495 -14.405 7.495 -24 8 C-24 7.34 -24 6.68 -24 6 C-17.4 6 -10.8 6 -4 6 C-4 6.99 -4 7.98 -4 9 C-3.34 9 -2.68 9 -2 9 C-2 7.68 -2 6.36 -2 5 C-1.34 5 -0.68 5 0 5 C0 3.35 0 1.7 0 0 Z " fill="#44664E" transform="translate(236,363)"/>
<path d="M0 0 C3.33864404 0.57562828 4.69102632 1.59063616 7 4 C7.99 4.33 8.98 4.66 10 5 C10.33 5.99 10.66 6.98 11 8 C11.33 5.36 11.66 2.72 12 0 C12.33 0 12.66 0 13 0 C13.22786458 2.01822917 13.45572917 4.03645833 13.68359375 6.0546875 C13.91292961 8.07404316 13.91292961 8.07404316 15 10 C14.34 10 13.68 10 13 10 C13.32742187 10.55171875 13.65484375 11.1034375 13.9921875 11.671875 C15.16787715 14.38780923 15.20248638 16.30551759 15.125 19.25 C15.10695312 20.14203125 15.08890625 21.0340625 15.0703125 21.953125 C15.03550781 22.96632812 15.03550781 22.96632812 15 24 C13.35 24 11.7 24 10 24 C7.94413408 16.54748603 7.94413408 16.54748603 8.3125 12.9375 C7.87152747 8.79235823 5.67443914 7.28965864 2.62890625 4.61328125 C1 3 1 3 0 0 Z " fill="#83947D" transform="translate(239,150)"/>
<path d="M0 0 C2.96865509 2.54456151 4.3619751 5.48994665 6 9 C3.36 9.66 0.72 10.32 -2 11 C-2.33 13.64 -2.66 16.28 -3 19 C-4.98 18.67 -6.96 18.34 -9 18 C-9.37039877 11.5797546 -9.37039877 11.5797546 -7.5625 8.75 C-7.046875 8.1725 -6.53125 7.595 -6 7 C-5.67 6.01 -5.34 5.02 -5 4 C-4.01 3.67 -3.02 3.34 -2 3 C-2 2.34 -2 1.68 -2 1 C-1.34 0.67 -0.68 0.34 0 0 Z " fill="#255433" transform="translate(207,306)"/>
<path d="M0 0 C0.99 0 1.98 0 3 0 C3 0.66 3 1.32 3 2 C3.99 2 4.98 2 6 2 C6 3.32 6 4.64 6 6 C6.99 5.67 7.98 5.34 9 5 C9.99 6.485 9.99 6.485 11 8 C10.67 8.99 10.34 9.98 10 11 C4.79245283 13.26415094 4.79245283 13.26415094 1 12 C-0.1875 9.9375 -0.1875 9.9375 -1 8 C-1 8.66 -1 9.32 -1 10 C-1.99 10 -2.98 10 -4 10 C-4.6875 7.1875 -4.6875 7.1875 -5 4 C-3.5625 2.125 -3.5625 2.125 -2 1 C-2 1.66 -2 2.32 -2 3 C-1.34 3 -0.68 3 0 3 C0 2.01 0 1.02 0 0 Z " fill="#255033" transform="translate(247,195)"/>
<path d="M0 0 C0.66 0 1.32 0 2 0 C1.94199219 0.92941406 1.88398438 1.85882813 1.82421875 2.81640625 C1.29544519 11.05925537 1.29544519 11.05925537 4.5 18.375 C5.325 19.24125 6.15 20.1075 7 21 C6.01 21.33 5.02 21.66 4 22 C3.34 21.34 2.68 20.68 2 20 C1.071875 20.350625 0.14375 20.70125 -0.8125 21.0625 C-4 22 -4 22 -7 21 C-9.76159346 17.36632439 -9.14498705 13.34961164 -9 9 C-7.5 10.3125 -7.5 10.3125 -6 12 C-6 12.99 -6 13.98 -6 15 C-2.72226496 14.24849977 -2.72226496 14.24849977 -1 11 C-0.79576137 8.51688623 -0.79576137 8.51688623 -0.9375 5.875 C-0.99164105 4.25076856 -1.02038538 2.62500568 -1 1 C-0.67 0.67 -0.34 0.34 0 0 Z " fill="#396145" transform="translate(300,295)"/>
<path d="M0 0 C0.99 0.33 1.98 0.66 3 1 C2.34 1 1.68 1 1 1 C1 1.66 1 2.32 1 3 C1.99 3.33 2.98 3.66 4 4 C4 4.99 4 5.98 4 7 C-0.06849409 9.71232939 -2.16476784 9.30699887 -7 9 C-7.66 8.34 -8.32 7.68 -9 7 C-9.99 6.67 -10.98 6.34 -12 6 C-11.67 7.32 -11.34 8.64 -11 10 C-12.32 9.67 -13.64 9.34 -15 9 C-15.38218767 7.34385343 -15.71395102 5.67542976 -16 4 C-15 3 -15 3 -12.71484375 2.90234375 C-11.34005859 2.91974609 -11.34005859 2.91974609 -9.9375 2.9375 C-9.01839844 2.94652344 -8.09929687 2.95554687 -7.15234375 2.96484375 C-6.44207031 2.97644531 -5.73179687 2.98804688 -5 3 C-5 2.34 -5 1.68 -5 1 C-3.68 1.33 -2.36 1.66 -1 2 C-0.67 1.34 -0.34 0.68 0 0 Z " fill="#2F593C" transform="translate(326,315)"/>
<path d="M0 0 C3.96 0 7.92 0 12 0 C10.66536458 1.72526042 9.33072917 3.45052083 7.99609375 5.17578125 C7.66738281 5.77777344 7.33867187 6.37976563 7 7 C7.33 7.99 7.66 8.98 8 10 C9.25378451 15.35707925 9.25378451 15.35707925 8.0625 18.375 C7.711875 18.91125 7.36125 19.4475 7 20 C6.67 18.68 6.34 17.36 6 16 C4.02 16.99 4.02 16.99 2 18 C1.9727585 16.58344207 1.95349533 15.16672955 1.9375 13.75 C1.92589844 12.96109375 1.91429687 12.1721875 1.90234375 11.359375 C1.99614694 9.09308998 2.36758937 7.1711105 3 5 C2.34 5 1.68 5 1 5 C0.67 3.35 0.34 1.7 0 0 Z " fill="#265434" transform="translate(246,340)"/>
<path d="M0 0 C0.66 0.33 1.32 0.66 2 1 C0.02 1.99 0.02 1.99 -2 3 C-2 3.66 -2 4.32 -2 5 C-11.52790698 15.36860465 -11.52790698 15.36860465 -17 16 C-18.4648776 13.67342969 -19.01737644 12.33884066 -18.875 9.5625 C-17.81089396 6.44618946 -16.1698159 4.44979215 -14 2 C-14 2.99 -14 3.98 -14 5 C-10.21293268 5 -6.73486879 4.5745952 -3 4 C-3 3.34 -3 2.68 -3 2 C-2.01 1.34 -1.02 0.68 0 0 Z " fill="#618261" transform="translate(274,157)"/>
<path d="M0 0 C3.3 0 6.6 0 10 0 C10 2.97 10 5.94 10 9 C9.01 9.495 9.01 9.495 8 10 C7.34 9.67 6.68 9.34 6 9 C5.67 9.66 5.34 10.32 5 11 C3.68 11 2.36 11 1 11 C1 10.34 1 9.68 1 9 C0.01 8.67 -0.98 8.34 -2 8 C-1.125 2.25 -1.125 2.25 0 0 Z " fill="#245433" transform="translate(217,339)"/>
<path d="M0 0 C0.66 0 1.32 0 2 0 C2.89587605 12.3502912 3.11522956 24.61922367 3 37 C0.61026881 32.22053762 -0.119902 29.4958926 -0.09765625 24.0234375 C-0.09553383 22.99556625 -0.09553383 22.99556625 -0.09336853 21.94692993 C-0.08776675 19.75624239 -0.07521406 17.5656567 -0.0625 15.375 C-0.05748522 13.89062648 -0.05292228 12.40625135 -0.04882812 10.921875 C-0.03779677 7.28121685 -0.02053099 3.64061836 0 0 Z " fill="#4F6D54" transform="translate(319,139)"/>
<path d="M0 0 C0.36630156 3.93774177 0.30233203 5.56539771 -2 8.875 C-2.66 9.57625 -3.32 10.2775 -4 11 C-4.763125 10.835 -5.52625 10.67 -6.3125 10.5 C-9.03596236 9.90854604 -9.03596236 9.90854604 -12 10 C-12 9.34 -12 8.68 -12 8 C-12.66 8 -13.32 8 -14 8 C-14 7.34 -14 6.68 -14 6 C-12.35 6 -10.7 6 -9 6 C-8.67 5.34 -8.34 4.68 -8 4 C-8 4.66 -8 5.32 -8 6 C-7.34 6 -6.68 6 -6 6 C-6.7763932 2.9254644 -6.7763932 2.9254644 -9 1 C-5.64919071 -1.10976881 -3.77897651 -1.0497157 0 0 Z " fill="#476D47" transform="translate(233,149)"/>
<path d="M0 0 C1 3 2 6 3 9 C3.99 9 4.98 9 6 9 C7.66666667 9 9.33333333 9 11 9 C9.44499019 12.81684226 6.96404505 15.19195732 4 18 C4.33 18.99 4.66 19.98 5 21 C4.01 21.33 3.02 21.66 2 22 C1.92652344 21.04287109 1.92652344 21.04287109 1.8515625 20.06640625 C1.77679688 19.24011719 1.70203125 18.41382813 1.625 17.5625 C1.55539063 16.73878906 1.48578125 15.91507813 1.4140625 15.06640625 C1.20910156 14.04353516 1.20910156 14.04353516 1 13 C0.34 12.67 -0.32 12.34 -1 12 C-1.02698189 10.37509046 -1.04638757 8.75005367 -1.0625 7.125 C-1.07410156 6.22007812 -1.08570313 5.31515625 -1.09765625 4.3828125 C-1 2 -1 2 0 0 Z " fill="#58784D" transform="translate(250,137)"/>
<path d="M0 0 C2.64 0.66 5.28 1.32 8 2 C6.03617993 3.50559539 4.21736634 4.89131683 2 6 C2 6.66 2 7.32 2 8 C8.98144819 9.69214979 15.84404654 11.29843593 23 12 C23 12.33 23 12.66 23 13 C11.47695407 13.44130814 1.81560688 10.8282045 -9 7 C-8.34 6.67 -7.68 6.34 -7 6 C-6.67 5.34 -6.34 4.68 -6 4 C-5.67 4.66 -5.34 5.32 -5 6 C-4.34 6 -3.68 6 -3 6 C-2.67 5.34 -2.34 4.68 -2 4 C-1.34 4 -0.68 4 0 4 C0 2.68 0 1.36 0 0 Z " fill="#44664F" transform="translate(257,201)"/>
<path d="M0 0 C1.32 0 2.64 0 4 0 C9 5.22727273 9 5.22727273 9 8 C9.66 8 10.32 8 11 8 C11 9.32 11 10.64 11 12 C10.01 12 9.02 12 8 12 C7.67 12.99 7.34 13.98 7 15 C6.67 13.35 6.34 11.7 6 10 C5.21625 9.9175 4.4325 9.835 3.625 9.75 C1 9 1 9 -0.3125 6.9375 C-0.539375 6.298125 -0.76625 5.65875 -1 5 C-0.34 4.01 0.32 3.02 1 2 C0.67 1.34 0.34 0.68 0 0 Z " fill="#255434" transform="translate(321,282)"/>
<path d="M0 0 C0.66 0.33 1.32 0.66 2 1 C1.67 1.66 1.34 2.32 1 3 C4.465 2.505 4.465 2.505 8 2 C8.33 2.66 8.66 3.32 9 4 C6.72979898 4.98065487 4.45887746 5.9595769 2.1875 6.9375 C1.22360352 7.35418945 1.22360352 7.35418945 0.24023438 7.77929688 C-2.48637715 8.9518811 -5.18268646 10.06089549 -8 11 C-8 11.66 -8 12.32 -8 13 C-8.99 13 -9.98 13 -11 13 C-9.63055898 10.05043472 -8.12169591 7.47531189 -6 5 C-5.34 5 -4.68 5 -4 5 C-4 4.34 -4 3.68 -4 3 C-2 1.375 -2 1.375 0 0 Z " fill="#546F5B" transform="translate(201,200)"/>
<path d="M0 0 C0.99 0.33 1.98 0.66 3 1 C2.74438677 3.3431213 2.40729228 5.67843403 2 8 C1.01 8.495 1.01 8.495 0 9 C0 10.65 0 12.3 0 14 C-1.65 14 -3.3 14 -5 14 C-5.28571429 5.42857143 -5.28571429 5.42857143 -3 2 C-2.01 2 -1.02 2 0 2 C0 1.34 0 0.68 0 0 Z " fill="#295536" transform="translate(308,360)"/>
<path d="M0 0 C2.375 0.6875 2.375 0.6875 5 2 C6.3125 4.625 6.3125 4.625 7 7 C5.824375 7.37125 5.824375 7.37125 4.625 7.75 C1.67682892 9.15389099 1.0975223 10.00675737 0 13 C-1.65 12.67 -3.3 12.34 -5 12 C-4.54625 11.505 -4.0925 11.01 -3.625 10.5 C-1.41840633 7.10524051 -0.85608575 3.95116502 0 0 Z " fill="#4D6A4E" transform="translate(238,161)"/>
<path d="M0 0 C2.1875 0.3125 2.1875 0.3125 4 1 C3.67 3.31 3.34 5.62 3 8 C1.865625 8.12375 0.73125 8.2475 -0.4375 8.375 C-2.2009375 8.684375 -2.2009375 8.684375 -4 9 C-4.33 9.66 -4.66 10.32 -5 11 C-5.99 10.34 -6.98 9.68 -8 9 C-8 8.01 -8 7.02 -8 6 C-6.36935236 4.94228261 -4.69719127 3.94726954 -3 3 C-2.484375 2.4225 -1.96875 1.845 -1.4375 1.25 C-0.7259375 0.63125 -0.7259375 0.63125 0 0 Z " fill="#446C46" transform="translate(268,153)"/>
<path d="M0 0 C2.31 0 4.62 0 7 0 C6.67 5.61 6.34 11.22 6 17 C5.67 17 5.34 17 5 17 C4.67 12.05 4.34 7.1 4 2 C1.36 6.62 -1.28 11.24 -4 16 C-4.66 14.68 -5.32 13.36 -6 12 C-5.01 11.67 -4.02 11.34 -3 11 C-3 8.36 -3 5.72 -3 3 C-2.01 2.67 -1.02 2.34 0 2 C0 1.34 0 0.68 0 0 Z " fill="#4B6D52" transform="translate(313,357)"/>
<path d="M0 0 C2.62187494 1.04874998 3.79371361 1.64931313 5.25 4.125 C5.4975 4.74375 5.745 5.3625 6 6 C5.01 6.33 4.02 6.66 3 7 C1.79117904 9.00016466 1.79117904 9.00016466 1 11 C0.67 11 0.34 11 0 11 C-0.2475 12.11375 -0.495 13.2275 -0.75 14.375 C-2 18 -2 18 -4.125 19.4375 C-4.74375 19.623125 -5.3625 19.80875 -6 20 C-5.67 19.01 -5.34 18.02 -5 17 C-4.34 16.67 -3.68 16.34 -3 16 C-2.53476937 14.10466658 -2.53476937 14.10466658 -2.375 11.9375 C-2.25125 10.638125 -2.1275 9.33875 -2 8 C-2.66 8 -3.32 8 -4 8 C-4 7.34 -4 6.68 -4 6 C-5.65 6 -7.3 6 -9 6 C-9 5.67 -9 5.34 -9 5 C-2.375 4.875 -2.375 4.875 1 6 C0.67 4.02 0.34 2.04 0 0 Z " fill="#4F715A" transform="translate(272,341)"/>
<path d="M0 0 C2.64 0.33 5.28 0.66 8 1 C7.67 3.97 7.34 6.94 7 10 C7.99 10 8.98 10 10 10 C10 9.34 10 8.68 10 8 C10.66 8.33 11.32 8.66 12 9 C12 9.99 12 10.98 12 12 C10.58194169 11.71517632 9.16559621 11.42181856 7.75 11.125 C6.96109375 10.96257812 6.1721875 10.80015625 5.359375 10.6328125 C3.03168856 10.00849925 1.10968048 9.15161458 -1 8 C-0.34 8 0.32 8 1 8 C0.67 7.01 0.34 6.02 0 5 C0.66 4.01 1.32 3.02 2 2 C1.34 1.34 0.68 0.68 0 0 Z " fill="#3F654D" transform="translate(236,195)"/>
<path d="M0 0 C0.66 0 1.32 0 2 0 C2 4.29 2 8.58 2 13 C-2 14 -2 14 -4.25 13.0625 C-4.8275 12.711875 -5.405 12.36125 -6 12 C-5.67 10.68 -5.34 9.36 -5 8 C-4.34 8.33 -3.68 8.66 -3 9 C-2.67 7.35 -2.34 5.7 -2 4 C-1.34 4 -0.68 4 0 4 C0 2.68 0 1.36 0 0 Z " fill="#346440" transform="translate(324,366)"/>
<path d="M0 0 C4.64590164 1.4295082 4.64590164 1.4295082 6.125 3.8125 C6 6 6 6 3.5625 8.75 C2.2940625 9.86375 2.2940625 9.86375 1 11 C0.01 10.67 -0.98 10.34 -2 10 C-3.6875 6.4375 -3.6875 6.4375 -5 3 C-2 3 -2 3 0 4 C0 2.68 0 1.36 0 0 Z " fill="#345D3E" transform="translate(279,283)"/>
<path d="M0 0 C0.66 0.99 1.32 1.98 2 3 C1.21069203 5.48935591 0.1651105 7.669779 -1 10 C-1.66 10 -2.32 10 -3 10 C-2.814375 10.78375 -2.62875 11.5675 -2.4375 12.375 C-2 15 -2 15 -3 17 C-2.01 17 -1.02 17 0 17 C0.33 16.34 0.66 15.68 1 15 C1 15.99 1 16.98 1 18 C1.66 18.33 2.32 18.66 3 19 C-0.3 19 -3.6 19 -7 19 C-6.4253379 14.21357393 -5.01754357 10.46211213 -2.9375 6.125 C-2.38964844 4.97257812 -1.84179688 3.82015625 -1.27734375 2.6328125 C-0.85582031 1.76398438 -0.43429688 0.89515625 0 0 Z " fill="#56745E" transform="translate(201,307)"/>
<path d="M0 0 C0.33 0 0.66 0 1 0 C1.97685365 4.0730403 2.11545444 7.868207 2.09765625 12.05078125 C2.0962413 12.70958786 2.09482635 13.36839447 2.09336853 14.04716492 C2.087805 16.13565762 2.07525947 18.22404011 2.0625 20.3125 C2.05748028 21.73502449 2.0529182 23.15755066 2.04882812 24.58007812 C2.03784757 28.05342077 2.02060835 31.52669961 2 35 C0.12791691 31.79709672 -0.30092393 29.29449996 -0.44921875 25.60546875 C-0.49240234 24.56712891 -0.53558594 23.52878906 -0.58007812 22.45898438 C-0.61552734 21.37939453 -0.65097656 20.29980469 -0.6875 19.1875 C-0.73455078 18.11951172 -0.78160156 17.05152344 -0.83007812 15.95117188 C-1.036317 10.4841511 -1.02079353 5.38027264 0 0 Z " fill="#3E5B41" transform="translate(179,175)"/>
<path d="M0 0 C2 1 2 1 4 3 C3.625 5.625 3.625 5.625 3 8 C1.35 8.33 -0.3 8.66 -2 9 C-2 8.34 -2 7.68 -2 7 C-5.54518884 8.39759905 -5.54518884 8.39759905 -9 10 C-9.66 9.34 -10.32 8.68 -11 8 C-8.82563934 6.22829872 -7.0116321 5.00443128 -4.375 4 C-1.68440435 3.12416419 -1.68440435 3.12416419 0 0 Z " fill="#245332" transform="translate(184,315)"/>
<path d="M0 0 C2.80045623 3.14591933 3.35261589 5.067064 3.1875 9.25 C3.16042969 10.14203125 3.13335937 11.0340625 3.10546875 11.953125 C3.07066406 12.62859375 3.03585938 13.3040625 3 14 C1.35 14 -0.3 14 -2 14 C-2.66 11.36 -3.32 8.72 -4 6 C-3.34 6 -2.68 6 -2 6 C-1.7834375 5.071875 -1.7834375 5.071875 -1.5625 4.125 C-1 2 -1 2 0 0 Z " fill="#6A7F64" transform="translate(251,160)"/>
<path d="M0 0 C3.34373475 0.55728913 6.03312999 1.35173889 9 3 C9 3.66 9 4.32 9 5 C10.65 5.33 12.3 5.66 14 6 C13.01 6.33 12.02 6.66 11 7 C11 7.66 11 8.32 11 9 C8.5625 8.625 8.5625 8.625 6 8 C5.67 7.34 5.34 6.68 5 6 C3.35 6 1.7 6 0 6 C0.185625 5.38125 0.37125 4.7625 0.5625 4.125 C1.23686176 1.95839822 1.23686176 1.95839822 0 0 Z " fill="#235333" transform="translate(253,316)"/>
<path d="M0 0 C1.32 0 2.64 0 4 0 C4 2.64 4 5.28 4 8 C3.01 8 2.02 8 1 8 C1 15.59 1 23.18 1 31 C0.67 31 0.34 31 0 31 C0 20.77 0 10.54 0 0 Z " fill="#6C8371" transform="translate(178,138)"/>
<path d="M0 0 C0.99 0 1.98 0 3 0 C3 0.99 3 1.98 3 3 C2.34 3 1.68 3 1 3 C1.33 5.64 1.66 8.28 2 11 C7.94 11.33 13.88 11.66 20 12 C20 14.31 20 16.62 20 19 C19.67 19 19.34 19 19 19 C19 17.02 19 15.04 19 13 C17.10314453 13.06960938 17.10314453 13.06960938 15.16796875 13.140625 C13.50783609 13.17814212 11.84767792 13.21454235 10.1875 13.25 C8.93743164 13.30027344 8.93743164 13.30027344 7.66210938 13.3515625 C1.52875647 13.45009026 1.52875647 13.45009026 -1.07421875 11.234375 C-2 9 -2 9 -2 5 C-1.34 5 -0.68 5 0 5 C0 3.35 0 1.7 0 0 Z " fill="#75907C" transform="translate(181,344)"/>
<path d="M0 0 C3.3 0 6.6 0 10 0 C8.02 0.99 8.02 0.99 6 2 C6.33 2.33 6.66 2.66 7 3 C6.5625 5.0625 6.5625 5.0625 6 7 C3.36 7.33 0.72 7.66 -2 8 C-1.67 7.01 -1.34 6.02 -1 5 C-0.67 5 -0.34 5 0 5 C0 3.68 0 2.36 0 1 C0 0.67 0 0.34 0 0 Z " fill="#305A3D" transform="translate(255,360)"/>
<path d="M0 0 C8.25 0 16.5 0 25 0 C24.67 0.99 24.34 1.98 24 3 C24 2.34 24 1.68 24 1 C20.89420506 1.02279401 17.79209516 1.10007819 14.6875 1.1875 C13.36588867 1.19620117 13.36588867 1.19620117 12.01757812 1.20507812 C9.57668631 1.28860674 7.37076373 1.40830758 5 2 C2.8070043 4.36813939 2.8070043 4.36813939 2 7 C3.32 7.33 4.64 7.66 6 8 C4.02 8 2.04 8 0 8 C0 5.36 0 2.72 0 0 Z " fill="#69806E" transform="translate(166,281)"/>
<path d="M0 0 C7.92 0 15.84 0 24 0 C24 0.33 24 0.66 24 1 C22.39318359 1.07347656 22.39318359 1.07347656 20.75390625 1.1484375 C19.35674361 1.22345294 17.9596095 1.2990013 16.5625 1.375 C15.85544922 1.4059375 15.14839844 1.436875 14.41992188 1.46875 C12.60760812 1.57280629 10.80182012 1.77919892 9 2 C8.67 2.66 8.34 3.32 8 4 C8 3.34 8 2.68 8 2 C5.69 2.33 3.38 2.66 1 3 C1 6.3 1 9.6 1 13 C0.67 13 0.34 13 0 13 C0 8.71 0 4.42 0 0 Z " fill="#43624C" transform="translate(174,339)"/>
<path d="M0 0 C1.98 0 3.96 0 6 0 C6 0.66 6 1.32 6 2 C6.99 2 7.98 2 9 2 C9 2.66 9 3.32 9 4 C8.34 4 7.68 4 7 4 C7 4.99 7 5.98 7 7 C5.35 7.33 3.7 7.66 2 8 C2.020625 7.030625 2.04125 6.06125 2.0625 5.0625 C2.35618499 2.12534105 2.35618499 2.12534105 1 1 C1 4.63 1 8.26 1 12 C0.67 12 0.34 12 0 12 C0 8.04 0 4.08 0 0 Z " fill="#1B4425" transform="translate(275,303)"/>
<path d="M0 0 C0.53625 0.37125 1.0725 0.7425 1.625 1.125 C0.965 2.775 0.305 4.425 -0.375 6.125 C-2.685 6.125 -4.995 6.125 -7.375 6.125 C-7.705 4.475 -8.035 2.825 -8.375 1.125 C-2.95961538 -1.09038462 -2.95961538 -1.09038462 0 0 Z " fill="#255134" transform="translate(227.375,194.875)"/>
<path d="M0 0 C2.31 0.33 4.62 0.66 7 1 C3.88628118 4.38060901 1.45912603 6.70920036 -3 8 C-3.99 8 -4.98 8 -6 8 C-6 6.02 -6 4.04 -6 2 C-5.67 2.66 -5.34 3.32 -5 4 C-3.01508358 3.73323796 -3.01508358 3.73323796 -1 3 C-0.67 2.01 -0.34 1.02 0 0 Z " fill="#63816E" transform="translate(207,254)"/>
<path d="M0 0 C0.66 0.33 1.32 0.66 2 1 C1 4 1 4 -1 5 C-2.0064275 6.66279327 -3.00585407 8.32983484 -4 10 C-5.5 11.8125 -5.5 11.8125 -7 13 C-7.99 13 -8.98 13 -10 13 C-8.87548273 10.0280615 -7.77706209 7.66559313 -6 5 C-5.34 5 -4.68 5 -4 5 C-4 4.34 -4 3.68 -4 3 C-3.34 3 -2.68 3 -2 3 C-2 2.34 -2 1.68 -2 1 C-1.34 0.67 -0.68 0.34 0 0 Z " fill="#637F63" transform="translate(270,146)"/>
<path d="M0 0 C2 2 2 2 2 6 C2.99 5.67 3.98 5.34 5 5 C5.66 6.32 6.32 7.64 7 9 C7.33 7.35 7.66 5.7 8 4 C8.33 4 8.66 4 9 4 C9.36923077 9.53846154 9.36923077 9.53846154 7.5 11.875 C7.005 12.24625 6.51 12.6175 6 13 C5.62875 12.0409375 5.62875 12.0409375 5.25 11.0625 C4.18437567 8.81258459 4.18437567 8.81258459 1.875 8.25 C1.25625 8.1675 0.6375 8.085 0 8 C-0.38063221 5.6739143 -0.71269945 3.33944736 -1 1 C-0.67 0.67 -0.34 0.34 0 0 Z " fill="#314635" transform="translate(247,168)"/>
<path d="M0 0 C2.35953094 2.35953094 2.49141413 3.77895617 3 7 C2.01 6.67 1.02 6.34 0 6 C-0.66 7.65 -1.32 9.3 -2 11 C-3.65 10.01 -5.3 9.02 -7 8 C-6.34 7.67 -5.68 7.34 -5 7 C-4.835 6.175 -4.67 5.35 -4.5 4.5 C-4.335 3.675 -4.17 2.85 -4 2 C-3.34 1.67 -2.68 1.34 -2 1 C-2 1.66 -2 2.32 -2 3 C-1.34 3 -0.68 3 0 3 C0 2.01 0 1.02 0 0 Z " fill="#5A805F" transform="translate(239,156)"/>
<path d="M0 0 C0.33 0 0.66 0 1 0 C1.46753711 6.57149385 1.46809228 10.74342084 -3 16 C-3.66 16.66 -4.32 17.32 -5 18 C-5.33 18.66 -5.66 19.32 -6 20 C-6.6875 18.3125 -6.6875 18.3125 -7 16 C-5.6875 13.25 -5.6875 13.25 -4 11 C-3.34 11 -2.68 11 -2 11 C-1.855625 10.113125 -1.71125 9.22625 -1.5625 8.3125 C-1.08980022 5.52882354 -0.56929815 2.76516243 0 0 Z " fill="#597562" transform="translate(278,348)"/>
<path d="M0 0 C1.65 0 3.3 0 5 0 C4.125 6.875 4.125 6.875 3 8 C1.31391034 8.07205511 -0.37500659 8.08386068 -2.0625 8.0625 C-2.98160156 8.05347656 -3.90070313 8.04445313 -4.84765625 8.03515625 C-5.55792969 8.02355469 -6.26820313 8.01195312 -7 8 C-7.33 7.34 -7.66 6.68 -8 6 C-5.36 5.34 -2.72 4.68 0 4 C0 2.68 0 1.36 0 0 Z " fill="#556E5C" transform="translate(199,339)"/>
<path d="M0 0 C0.33 0.66 0.66 1.32 1 2 C1.763125 1.9175 2.52625 1.835 3.3125 1.75 C6 2 6 2 7.875 3.8125 C8.24625 4.534375 8.6175 5.25625 9 6 C8.67 6.99 8.34 7.98 8 9 C5.69 8.67 3.38 8.34 1 8 C0.67 5.36 0.34 2.72 0 0 Z " fill="#215131" transform="translate(164,314)"/>
<path d="M0 0 C1.4540625 0.0309375 1.4540625 0.0309375 2.9375 0.0625 C3.5975 1.7125 4.2575 3.3625 4.9375 5.0625 C3.6175 5.3925 2.2975 5.7225 0.9375 6.0625 C0.9375 5.4025 0.9375 4.7425 0.9375 4.0625 C-0.0525 4.0625 -1.0425 4.0625 -2.0625 4.0625 C-2.3925 6.0425 -2.7225 8.0225 -3.0625 10.0625 C-3.3925 10.0625 -3.7225 10.0625 -4.0625 10.0625 C-4.08939216 8.58343108 -4.10884621 7.10422517 -4.125 5.625 C-4.13660156 4.80128906 -4.14820313 3.97757812 -4.16015625 3.12890625 C-4.00103255 -0.23815127 -3.43619093 0.07012635 0 0 Z " fill="#3D6149" transform="translate(290.0625,338.9375)"/>
<path d="M0 0 C3.46692734 3.7971109 4.51061867 8.17724141 6 13 C2.7 13 -0.6 13 -4 13 C-3.01 12.67 -2.02 12.34 -1 12 C-0.67 11.01 -0.34 10.02 0 9 C0.33 9 0.66 9 1 9 C0.835 8.071875 0.67 7.14375 0.5 6.1875 C0 3 0 3 0 0 Z " fill="#627968" transform="translate(237,313)"/>
<path d="M0 0 C0.33 0 0.66 0 1 0 C1.19441368 2.2910905 1.38033135 4.58290337 1.5625 6.875 C1.66691406 8.15117187 1.77132813 9.42734375 1.87890625 10.7421875 C2 14 2 14 1 16 C0.01 16 -0.98 16 -2 16 C-2.33 16.99 -2.66 17.98 -3 19 C-4.32 18.01 -5.64 17.02 -7 16 C-5 14 -3 12 -1 10 C-0.76712992 8.31816052 -0.58735834 6.6287584 -0.4375 4.9375 C-0.35371094 4.01839844 -0.26992188 3.09929687 -0.18359375 2.15234375 C-0.12300781 1.44207031 -0.06242187 0.73179687 0 0 Z " fill="#587861" transform="translate(328,299)"/>
<path d="M0 0 C1.134375 0.020625 2.26875 0.04125 3.4375 0.0625 C3.4375 2.0425 3.4375 4.0225 3.4375 6.0625 C1.9375 4.6875 1.9375 4.6875 0.4375 3.0625 C0.4375 2.4025 0.4375 1.7425 0.4375 1.0625 C-0.5525 1.3925 -1.5425 1.7225 -2.5625 2.0625 C-2.871875 2.990625 -3.18125 3.91875 -3.5 4.875 C-4.63816836 8.28950509 -5.88100666 9.7385391 -8.5625 12.0625 C-9.2225 11.7325 -9.8825 11.4025 -10.5625 11.0625 C-9.58512231 9.41560365 -8.6055468 7.77001146 -7.625 6.125 C-7.07972656 5.20847656 -6.53445313 4.29195313 -5.97265625 3.34765625 C-3.94959677 0.06929117 -3.94959677 0.06929117 0 0 Z " fill="#456651" transform="translate(322.5625,338.9375)"/>
<path d="M0 0 C3 2 3 2 3.5 4.375 C3 7 3 7 0.5 9.3125 C-0.7375 10.1478125 -0.7375 10.1478125 -2 11 C-3.03366148 7.25297715 -3.25733598 4.77200794 -2 1 C-1.34 0.67 -0.68 0.34 0 0 Z " fill="#466752" transform="translate(296,235)"/>
<path d="M0 0 C0.66 0.33 1.32 0.66 2 1 C1.67 2.65 1.34 4.3 1 6 C-1.64 6.66 -4.28 7.32 -7 8 C-7 5 -7 5 -5.1875 2.875 C-3 1 -3 1 0 0 Z " fill="#4B6E56" transform="translate(209,196)"/>
<path d="M0 0 C0.66 0 1.32 0 2 0 C3.55747511 6.42458483 3.41109022 11.82158131 1 18 C0.67 18 0.34 18 0 18 C0 12.06 0 6.12 0 0 Z " fill="#42644B" transform="translate(319,187)"/>
<path d="M0 0 C0.66 0 1.32 0 2 0 C1.67 3.96 1.34 7.92 1 12 C0.34 12 -0.32 12 -1 12 C-1 10.68 -1 9.36 -1 8 C-1.99 8 -2.98 8 -4 8 C-4.33 6.68 -4.66 5.36 -5 4 C-4.01 4 -3.02 4 -2 4 C-1.34 2.68 -0.68 1.36 0 0 Z " fill="#395D41" transform="translate(254,189)"/>
<path d="M0 0 C0.99 0.33 1.98 0.66 3 1 C2.34 1 1.68 1 1 1 C1 1.66 1 2.32 1 3 C1.99 3.33 2.98 3.66 4 4 C4 4.66 4 5.32 4 6 C3.21625 5.95875 2.4325 5.9175 1.625 5.875 C-1.16116119 5.71271266 -1.16116119 5.71271266 -3 8 C-3.433125 7.0409375 -3.433125 7.0409375 -3.875 6.0625 C-4.82823451 3.84793921 -4.82823451 3.84793921 -7 3 C-6.34 3 -5.68 3 -5 3 C-5 2.34 -5 1.68 -5 1 C-3.68 1.33 -2.36 1.66 -1 2 C-0.67 1.34 -0.34 0.68 0 0 Z " fill="#235332" transform="translate(326,315)"/>
<path d="M0 0 C0.33 0.99 0.66 1.98 1 3 C-0.175625 3.1546875 -0.175625 3.1546875 -1.375 3.3125 C-4.33045181 3.77595022 -4.33045181 3.77595022 -6 7 C-6.66 7 -7.32 7 -8 7 C-8.66 5.68 -9.32 4.36 -10 3 C-10 3.66 -10 4.32 -10 5 C-10.99 4.67 -11.98 4.34 -13 4 C-8.77894053 0.40428268 -5.4674729 0 0 0 Z " fill="#466A51" transform="translate(314,280)"/>
<path d="M0 0 C0.99 0.33 1.98 0.66 3 1 C2.47731534 3.76276177 1.89130413 6.3260876 1 9 C0.01 9 -0.98 9 -2 9 C-2.66 10.32 -3.32 11.64 -4 13 C-4 12.34 -4 11.68 -4 11 C-4.639375 10.87625 -5.27875 10.7525 -5.9375 10.625 C-6.618125 10.41875 -7.29875 10.2125 -8 10 C-8.33 9.34 -8.66 8.68 -9 8 C-7.68 8.33 -6.36 8.66 -5 9 C-1.53028623 4.97652412 -1.53028623 4.97652412 0 0 Z " fill="#5B7F5B" transform="translate(233,150)"/>
<path d="M0 0 C1.98 0.99 1.98 0.99 4 2 C4.99 1.34 5.98 0.68 7 0 C9 2 9 2 9 5 C8.34 5 7.68 5 7 5 C7 5.99 7 6.98 7 8 C4.13792848 6.71700242 1.9754912 5.469364 0 3 C0 2.01 0 1.02 0 0 Z " fill="#456A51" transform="translate(246,314)"/>
<path d="M0 0 C0.99 0 1.98 0 3 0 C3 2.97 3 5.94 3 9 C0.36 9 -2.28 9 -5 9 C-5 8.01 -5 7.02 -5 6 C-3.35 5.67 -1.7 5.34 0 5 C0 3.35 0 1.7 0 0 Z " fill="#395B44" transform="translate(179,370)"/>
<path d="M0 0 C0.99 0.66 1.98 1.32 3 2 C3 3.32 3 4.64 3 6 C2.01 5.67 1.02 5.34 0 5 C-0.66 6.65 -1.32 8.3 -2 10 C-3.32 10 -4.64 10 -6 10 C-5.67 8.35 -5.34 6.7 -5 5 C-4.01 5.33 -3.02 5.66 -2 6 C-1.855625 5.195625 -1.71125 4.39125 -1.5625 3.5625 C-1 1 -1 1 0 0 Z " fill="#406440" transform="translate(236,153)"/>
<path d="M0 0 C5.4389165 -0.21755666 9.87080814 -0.10428384 15 2 C11.91039891 3.82695589 9.93229631 4.22295727 6.375 3.8125 C5.59898437 3.73644531 4.82296875 3.66039062 4.0234375 3.58203125 C2 3 2 3 0 0 Z " fill="#53725D" transform="translate(263,280)"/>
<path d="M0 0 C1.65 0 3.3 0 5 0 C5 2.33333333 5 4.66666667 5 7 C3.68 7.33 2.36 7.66 1 8 C-0.35439668 5.29120665 -0.06501451 2.99066732 0 0 Z " fill="#4C6956" transform="translate(201,227)"/>
<path d="M0 0 C-2.21654551 3.4998087 -4.00190796 4.88425338 -8 6 C-11.3125 6.125 -11.3125 6.125 -14 6 C-12.68 5.67 -11.36 5.34 -10 5 C-10 4.34 -10 3.68 -10 3 C-3.375 -1.125 -3.375 -1.125 0 0 Z " fill="#466651" transform="translate(295,207)"/>
<path d="M0 0 C0.99 0 1.98 0 3 0 C4.625 2.75 4.625 2.75 6 6 C5.1875 8.375 5.1875 8.375 4 10 C3.01 9.67 2.02 9.34 1 9 C1.33 7.68 1.66 6.36 2 5 C1.01 5.33 0.02 5.66 -1 6 C-1 5.01 -1 4.02 -1 3 C-0.34 2.67 0.32 2.34 1 2 C0.67 1.34 0.34 0.68 0 0 Z " fill="#3A613F" transform="translate(243,179)"/>
<path d="M0 0 C5.13510808 1.15698423 10.14069265 2.10156927 15.375 2.625 C15.375 2.955 15.375 3.285 15.375 3.625 C7.07066932 3.9430382 -1.1803746 3.67025307 -8.625 -0.375 C-5.55652894 -1.90923553 -3.29076981 -0.76808118 0 0 Z " fill="#5C7462" transform="translate(264.625,210.375)"/>
<path d="M0 0 C5.37295382 2.68647691 8.03147875 4.77540259 11 10 C9.68 10 8.36 10 7 10 C7 9.34 7 8.68 7 8 C6.34 8 5.68 8 5 8 C0 2.52380952 0 2.52380952 0 0 Z " fill="#597460" transform="translate(325,282)"/>
<path d="M0 0 C0.33 0.99 0.66 1.98 1 3 C1.66 3.33 2.32 3.66 3 4 C4.33333333 4.66666667 5.66666667 5.33333333 7 6 C7 6.99 7 7.98 7 9 C7.99 9.33 8.98 9.66 10 10 C5.12637153 9.54663921 2.60957611 8.2910841 -1 5 C-0.67 3.35 -0.34 1.7 0 0 Z " fill="#536F5C" transform="translate(163,316)"/>
<path d="M0 0 C1.4606285 2.64738916 2 3.89448334 2 7 C1.01 7.495 1.01 7.495 0 8 C-0.33 7.34 -0.66 6.68 -1 6 C-1.99 5.67 -2.98 5.34 -4 5 C-4 5.66 -4 6.32 -4 7 C-4.66 7 -5.32 7 -6 7 C-4.60667426 3.63279613 -3.0210714 2.0140476 0 0 Z " fill="#476B52" transform="translate(300,284)"/>
<path d="M0 0 C2.7839183 1.39195915 2.97898997 3.15575779 4 6 C3.01 6.66 2.02 7.32 1 8 C0.01 7.67 -0.98 7.34 -2 7 C-2.33 5.02 -2.66 3.04 -3 1 C-2.01 1.33 -1.02 1.66 0 2 C0 1.34 0 0.68 0 0 Z " fill="#225432" transform="translate(304,283)"/>
<path d="M0 0 C0.99 0.33 1.98 0.66 3 1 C1.56967163 2.17544805 0.13046758 3.34010262 -1.3125 4.5 C-2.11300781 5.1496875 -2.91351563 5.799375 -3.73828125 6.46875 C-6 8 -6 8 -9 8 C-9 7.34 -9 6.68 -9 6 C-8.34 6 -7.68 6 -7 6 C-7 5.34 -7 4.68 -7 4 C-5.35 3.67 -3.7 3.34 -2 3 C-2 2.34 -2 1.68 -2 1 C-1.34 0.67 -0.68 0.34 0 0 Z " fill="#657D66" transform="translate(284,168)"/>
<path d="M0 0 C0.33 0.99 0.66 1.98 1 3 C1.66 3 2.32 3 3 3 C4.24153433 6.724603 3.47452539 7.47752269 2 11 C1.62406934 12.9924325 1.28020455 14.9918674 1 17 C0.67 17 0.34 17 0 17 C0 11.39 0 5.78 0 0 Z " fill="#789580" transform="translate(246,342)"/>
<path d="M0 0 C0.33 1.98 0.66 3.96 1 6 C-1.64 5.67 -4.28 5.34 -7 5 C-6.34 4.67 -5.68 4.34 -5 4 C-5 3.01 -5 2.02 -5 1 C-3 0 -3 0 0 0 Z " fill="#245332" transform="translate(272,341)"/>
<path d="M0 0 C0.99 0 1.98 0 3 0 C3.08159574 4.16138263 2.98248524 7.9472484 2 12 C1.34 11.67 0.68 11.34 0 11 C0 7.37 0 3.74 0 0 Z " fill="#47654B" transform="translate(179,146)"/>
<path d="M0 0 C1.1446875 0.2475 1.1446875 0.2475 2.3125 0.5 C5.03596236 1.09145396 5.03596236 1.09145396 8 1 C7 2.5 7 2.5 5 4 C2.28153765 4.27345479 -0.25677199 4.13491285 -3 4 C-2.01 2.68 -1.02 1.36 0 0 Z " fill="#446851" transform="translate(178,322)"/>
<path d="M0 0 C0.66 0 1.32 0 2 0 C2.33692785 1.60341555 2.66941093 3.20776555 3 4.8125 C3.185625 5.70582031 3.37125 6.59914063 3.5625 7.51953125 C4 10 4 10 4 13 C0.38860104 9.38860104 0.38860104 9.38860104 -1 7 C-0.8125 3.125 -0.8125 3.125 0 0 Z " fill="#4D6C53" transform="translate(251,300)"/>
<path d="M0 0 C0.66 0 1.32 0 2 0 C2.33 1.98 2.66 3.96 3 6 C2.071875 6.12375 2.071875 6.12375 1.125 6.25 C-1.18437567 6.81258459 -1.18437567 6.81258459 -2.25 9.0625 C-2.4975 9.701875 -2.745 10.34125 -3 11 C-3 8.04725901 -2.56108169 6.50941597 -1.5 3.8125 C-1.2215625 3.09707031 -0.943125 2.38164062 -0.65625 1.64453125 C-0.33140625 0.83048828 -0.33140625 0.83048828 0 0 Z " fill="#55725D" transform="translate(209,356)"/>
<path d="M0 0 C0.66 0.33 1.32 0.66 2 1 C1.34 2.98 0.68 4.96 0 7 C-0.66 7 -1.32 7 -2 7 C-2.66 7.99 -3.32 8.98 -4 10 C-4.33 8.02 -4.66 6.04 -5 4 C-4.34 4 -3.68 4 -3 4 C-3 3.34 -3 2.68 -3 2 C-2.01 1.34 -1.02 0.68 0 0 Z " fill="#54765D" transform="translate(253,283)"/>
<path d="M0 0 C2.4375 0.75 2.4375 0.75 5 2 C5.875 4 5.875 4 6 6 C5.67 6.66 5.34 7.32 5 8 C4.34 8 3.68 8 3 8 C2.67 7.01 2.34 6.02 2 5 C1.34 4.67 0.68 4.34 0 4 C0 2.68 0 1.36 0 0 Z " fill="#587662" transform="translate(279,283)"/>
<path d="M0 0 C1.125 7.75 1.125 7.75 0 10 C-1.0625 8.125 -1.0625 8.125 -2 6 C-1.67 5.34 -1.34 4.68 -1 4 C-3.475 3.01 -3.475 3.01 -6 2 C-3 0 -3 0 0 0 Z " fill="#2C5439" transform="translate(224,282)"/>
<path d="M0 0 C0.33 0 0.66 0 1 0 C1.33 4.29 1.66 8.58 2 13 C1.01 13 0.02 13 -1 13 C-1.02696365 11.20841511 -1.04637917 9.41671527 -1.0625 7.625 C-1.07410156 6.62726563 -1.08570313 5.62953125 -1.09765625 4.6015625 C-1 2 -1 2 0 0 Z " fill="#34573F" transform="translate(320,254)"/>
<path d="M0 0 C0.33 0.99 0.66 1.98 1 3 C-1.64 4.65 -4.28 6.3 -7 8 C-7 6.35 -7 4.7 -7 3 C-4.69 2.01 -2.38 1.02 0 0 Z " fill="#456652" transform="translate(234,230)"/>
<path d="M0 0 C0.33 0.66 0.66 1.32 1 2 C-3.14285714 8.42857143 -3.14285714 8.42857143 -6 11 C-6 10.34 -6 9.68 -6 9 C-6.66 8.67 -7.32 8.34 -8 8 C-7.01 7.67 -6.02 7.34 -5 7 C-4.31867549 5.33927151 -3.65257873 3.672233 -3 2 C-2.01 1.34 -1.02 0.68 0 0 Z " fill="#84967B" transform="translate(261,147)"/>
<path d="M0 0 C2.97 0 5.94 0 9 0 C9 2.64 9 5.28 9 8 C8.01 8 7.02 8 6 8 C6 7.01 6 6.02 6 5 C6.66 5 7.32 5 8 5 C8 4.34 8 3.68 8 3 C7.01 3 6.02 3 5 3 C5 2.34 5 1.68 5 1 C3.35 1 1.7 1 0 1 C0 0.67 0 0.34 0 0 Z " fill="#395944" transform="translate(276,302)"/>
<path d="M0 0 C-1.26941497 3.91402949 -2.51167694 5.79072873 -6 8 C-6 7.01 -6 6.02 -6 5 C-6.66 4.67 -7.32 4.34 -8 4 C-2.25 0 -2.25 0 0 0 Z " fill="#637A6E" transform="translate(310,194)"/>
<path d="M0 0 C2.475 0.99 2.475 0.99 5 2 C5 5 5 5 3.5 6.6875 C3.005 7.120625 2.51 7.55375 2 8 C0.74335022 5.09399739 0 3.20395416 0 0 Z " fill="#45694F" transform="translate(243,306)"/>
<path d="M0 0 C1.4783226 2.95664519 1.06032783 5.74229737 1 9 C0.01 9.495 0.01 9.495 -1 10 C-1.66 9.67 -2.32 9.34 -3 9 C-3.33 9.66 -3.66 10.32 -4 11 C-3.42415568 8.61435923 -2.77772405 6.33317216 -2 4 C-2 3.01 -2 2.02 -2 1 C-1.34 0.67 -0.68 0.34 0 0 Z " fill="#234B2F" transform="translate(226,339)"/>
<path d="M0 0 C1.8871875 0.0309375 1.8871875 0.0309375 3.8125 0.0625 C3.8125 0.3925 3.8125 0.7225 3.8125 1.0625 C2.719375 1.083125 1.62625 1.10375 0.5 1.125 C-3.14482337 1.62364043 -3.14482337 1.62364043 -4.3203125 3.6875 C-5.25174734 5.84473035 -5.25174734 5.84473035 -6.1875 9.0625 C-6.5175 9.0625 -6.8475 9.0625 -7.1875 9.0625 C-7.1875 6.4225 -7.1875 3.7825 -7.1875 1.0625 C-4.43671116 0.14557039 -2.82801087 -0.04636083 0 0 Z " fill="#587461" transform="translate(211.1875,314.9375)"/>
<path d="M0 0 C0 2.31 0 4.62 0 7 C-0.99 7.495 -0.99 7.495 -2 8 C-3.37562854 6.71034824 -4.70766393 5.37310707 -6 4 C-6 3.34 -6 2.68 -6 2 C-3 0 -3 0 0 0 Z M-2 1 C-1 3 -1 3 -1 3 Z " fill="#6E946F" transform="translate(246,168)"/>
<path d="M0 0 C0.66 -0.33 1.32 -0.66 2 -1 C0.25 3.875 0.25 3.875 -2 5 C-2.2475 4.195625 -2.495 3.39125 -2.75 2.5625 C-3.72238859 -0.171081 -3.72238859 -0.171081 -6.125 -0.8125 C-6.74375 -0.874375 -7.3625 -0.93625 -8 -1 C-4.51863753 -2.24334374 -3.18362328 -1.69793242 0 0 Z " fill="#627F6B" transform="translate(268,368)"/>
<path d="M0 0 C2.96052484 3.36423277 3.92289822 6.69159287 5 11 C2.56070254 9.07423885 0.19909405 7.19909405 -2 5 C-1.34 5 -0.68 5 0 5 C0 3.35 0 1.7 0 0 Z " fill="#4C6D59" transform="translate(236,363)"/>
<path d="M0 0 C0.33 0 0.66 0 1 0 C1.08121924 1.60332791 1.13929134 3.20784026 1.1875 4.8125 C1.23970703 6.15248047 1.23970703 6.15248047 1.29296875 7.51953125 C0.95081002 10.41647515 0.24606427 11.22555028 -2 13 C-2.16682272 8.07872966 -2.24828052 4.49656104 0 0 Z " fill="#4F705A" transform="translate(190,308)"/>
<path d="M0 0 C2.64 0 5.28 0 8 0 C8.103125 0.639375 8.20625 1.27875 8.3125 1.9375 C8.6528125 2.9584375 8.6528125 2.9584375 9 4 C9.99 4.33 10.98 4.66 12 5 C7.43545749 4.45660208 4.0271824 3.20536179 0 1 C0 0.67 0 0.34 0 0 Z " fill="#5B7462" transform="translate(225,251)"/>
<path d="M0 0 C0.33 0.66 0.66 1.32 1 2 C1.66 2 2.32 2 3 2 C2.34 3.32 1.68 4.64 1 6 C-0.65 5.67 -2.3 5.34 -4 5 C-2.68 3.35 -1.36 1.7 0 0 Z " fill="#336634" transform="translate(237,168)"/>
<path d="M0 0 C0.33 0.66 0.66 1.32 1 2 C1.66 2 2.32 2 3 2 C2.34 3.32 1.68 4.64 1 6 C-0.65 6 -2.3 6 -4 6 C-2.25 1.125 -2.25 1.125 0 0 Z " fill="#265033" transform="translate(273,370)"/>
<path d="M0 0 C0.77321882 2.98241547 1.41196203 5.97580475 2 9 C1.01 9.33 0.02 9.66 -1 10 C-2.23076923 4.58461538 -2.23076923 4.58461538 -1.0625 1.625 C-0.5365625 0.820625 -0.5365625 0.820625 0 0 Z " fill="#3F6449" transform="translate(204,301)"/>
<path d="M0 0 C2.0625 0.4375 2.0625 0.4375 4 1 C2.515 3.475 2.515 3.475 1 6 C2.32 6.33 3.64 6.66 5 7 C3.02 7 1.04 7 -1 7 C-1.04254356 5.00045254 -1.04080783 2.99958364 -1 1 C-0.67 0.67 -0.34 0.34 0 0 Z " fill="#516A56" transform="translate(167,282)"/>
<path d="M0 0 C-2.42130331 2.42130331 -3.80111377 2.52840504 -7.125 3.125 C-8.49011719 3.37636719 -8.49011719 3.37636719 -9.8828125 3.6328125 C-10.58148438 3.75398438 -11.28015625 3.87515625 -12 4 C-11.34 3.67 -10.68 3.34 -10 3 C-10 2.34 -10 1.68 -10 1 C-6.78548731 -0.60725635 -3.56387464 -0.05748185 0 0 Z " fill="#698371" transform="translate(278,256)"/>
<path d="M0 0 C2.8992226 0.46761655 3.86675182 0.86675182 6 3 C5.34 3 4.68 3 4 3 C3.67 3.99 3.34 4.98 3 6 C2.01 5.67 1.02 5.34 0 5 C-0.75 3 -0.75 3 -1 1 C-0.67 0.67 -0.34 0.34 0 0 Z " fill="#235131" transform="translate(234,250)"/>
<path d="M0 0 C2.97 0 5.94 0 9 0 C5.71299843 1.64350079 3.52069985 2.41321669 0 3 C0 3.99 0 4.98 0 6 C-0.66 6 -1.32 6 -2 6 C-1.34 4.02 -0.68 2.04 0 0 Z " fill="#4F6856" transform="translate(217,339)"/>
<path d="M0 0 C0.99 0.33 1.98 0.66 3 1 C2.67 1.99 2.34 2.98 2 4 C2.33 4.66 2.66 5.32 3 6 C2.01 7.485 2.01 7.485 1 9 C0.67 7.35 0.34 5.7 0 4 C-0.66 4 -1.32 4 -2 4 C-1.34 2.68 -0.68 1.36 0 0 Z " fill="#225230" transform="translate(210,296)"/>
<path d="M0 0 C0.99 0.66 1.98 1.32 3 2 C2.01 2.33 1.02 2.66 0 3 C-1.22969878 6.51190809 -1.22969878 6.51190809 -2 10 C-3.125 8.25 -3.125 8.25 -4 6 C-3.05773345 3.33024478 -2.01384202 2.01384202 0 0 Z " fill="#4F6C56" transform="translate(256,290)"/>
<path d="M0 0 C3.65316671 1.24976756 4.78065836 1.67098753 7 5 C6.01 5.33 5.02 5.66 4 6 C1.8125 4.75 1.8125 4.75 0 3 C0 2.01 0 1.02 0 0 Z " fill="#43644E" transform="translate(211,232)"/>
<path d="M0 0 C2.4375 0.375 2.4375 0.375 5 1 C5.33 1.66 5.66 2.32 6 3 C3.525 4.485 3.525 4.485 1 6 C-0.0625 4.125 -0.0625 4.125 -1 2 C-0.67 1.34 -0.34 0.68 0 0 Z " fill="#4A6F57" transform="translate(254,217)"/>
<path d="M0 0 C-1.75 3.875 -1.75 3.875 -4 5 C-5.5 3.625 -5.5 3.625 -7 2 C-7 1.34 -7 0.68 -7 0 C-4.3333581 -1.33332095 -2.83319697 -0.67102033 0 0 Z " fill="#4A7154" transform="translate(334,316)"/>
<path d="M0 0 C3.3 0 6.6 0 10 0 C10 0.33 10 0.66 10 1 C7.36 1 4.72 1 2 1 C1.67 2.32 1.34 3.64 1 5 C0.01 4.67 -0.98 4.34 -2 4 C-1.34 2.68 -0.68 1.36 0 0 Z " fill="#506B58" transform="translate(213,281)"/>
<path d="M0 0 C0.66 0.66 1.32 1.32 2 2 C1.61121812 5.01305957 0.73543126 6.39685311 -1 9 C-1.66 9 -2.32 9 -3 9 C-2.01 6.03 -1.02 3.06 0 0 Z " fill="#587760" transform="translate(214,345)"/>
<path d="M0 0 C0.99 0 1.98 0 3 0 C3 2.97 3 5.94 3 9 C1 6 1 6 1 4 C0.34 3.67 -0.32 3.34 -1 3 C-0.67 2.01 -0.34 1.02 0 0 Z " fill="#2E553C" transform="translate(323,345)"/>
<path d="M0 0 C2 2 2 2 4 5 C-1.53846154 4.38461538 -1.53846154 4.38461538 -3.875 2.4375 C-4.24625 1.963125 -4.6175 1.48875 -5 1 C-2.625 0.375 -2.625 0.375 0 0 Z " fill="#5F8368" transform="translate(258,321)"/>
<path d="M0 0 C0.66 1.32 1.32 2.64 2 4 C3.32 3.67 4.64 3.34 6 3 C6.33 3.99 6.66 4.98 7 6 C4.36 6 1.72 6 -1 6 C-0.67 4.02 -0.34 2.04 0 0 Z " fill="#275132" transform="translate(302,313)"/>
<path d="M0 0 C0.33 1.32 0.66 2.64 1 4 C-0.65 4.33 -2.3 4.66 -4 5 C-4.33 4.01 -4.66 3.02 -5 2 C-2 0 -2 0 0 0 Z " fill="#215532" transform="translate(313,282)"/>
<path d="M0 0 C1.4540625 0.0309375 1.4540625 0.0309375 2.9375 0.0625 C-0.8125 3.0625 -0.8125 3.0625 -3.0625 3.0625 C-3.0625 3.7225 -3.0625 4.3825 -3.0625 5.0625 C-4.0525 5.0625 -5.0425 5.0625 -6.0625 5.0625 C-3.64893617 0.07446809 -3.64893617 0.07446809 0 0 Z " fill="#869287" transform="translate(196.0625,207.9375)"/>
<path d="M0 0 C0.33 0 0.66 0 1 0 C1.061875 0.94875 1.12375 1.8975 1.1875 2.875 C1.455625 3.90625 1.72375 4.9375 2 6 C4.46255685 7.45291273 4.46255685 7.45291273 7 8 C7 8.33 7 8.66 7 9 C4.69 9 2.38 9 0 9 C0 6.03 0 3.06 0 0 Z " fill="#395643" transform="translate(247,370)"/>
<path d="M0 0 C0.66 0 1.32 0 2 0 C2 4.95 2 9.9 2 15 C1.34 15 0.68 15 0 15 C-0.19390729 12.68802845 -0.37996367 10.3753971 -0.5625 8.0625 C-0.71912109 6.13083984 -0.71912109 6.13083984 -0.87890625 4.16015625 C-0.91886719 3.11730469 -0.95882813 2.07445312 -1 1 C-0.67 0.67 -0.34 0.34 0 0 Z " fill="#5B7260" transform="translate(300,295)"/>
<path d="M0 0 C1.98 0 3.96 0 6 0 C5.01 0.33 4.02 0.66 3 1 C1.77479736 4.00847418 1.77479736 4.00847418 1 7 C-0.0625 5.1875 -0.0625 5.1875 -1 3 C-0.67 2.01 -0.34 1.02 0 0 Z " fill="#637B6A" transform="translate(244,215)"/>
<path d="M0 0 C1.2065625 0.0309375 1.2065625 0.0309375 2.4375 0.0625 C2.1075 1.0525 1.7775 2.0425 1.4375 3.0625 C-0.2125 3.3925 -1.8625 3.7225 -3.5625 4.0625 C-3.5625 0.08689024 -3.5625 0.08689024 0 0 Z " fill="#215132" transform="translate(205.5625,199.9375)"/>
<path d="M0 0 C1.32 0 2.64 0 4 0 C4.33 1.98 4.66 3.96 5 6 C4.34 5.67 3.68 5.34 3 5 C3 4.34 3 3.68 3 3 C2.01 3.33 1.02 3.66 0 4 C-0.33 3.01 -0.66 2.02 -1 1 C-0.67 0.67 -0.34 0.34 0 0 Z " fill="#1F572D" transform="translate(213,355)"/>
<path d="M0 0 C0.99 0.495 0.99 0.495 2 1 C2.73075648 3.3140622 3.40138258 5.64828869 4 8 C2.68 7.34 1.36 6.68 0 6 C0 4.02 0 2.04 0 0 Z " fill="#66826D" transform="translate(226,341)"/>
<path d="M0 0 C2.15377564 2.62198774 3.40072174 4.64404172 4 8 C3.01 8.33 2.02 8.66 1 9 C0.45627049 5.94152152 0 3.11227195 0 0 Z " fill="#54765C" transform="translate(237,313)"/>
<path d="M0 0 C0.99 0.33 1.98 0.66 3 1 C3 2.32 3 3.64 3 5 C1.68 4.67 0.36 4.34 -1 4 C-1 1 -1 1 0 0 Z " fill="#315B3F" transform="translate(297,315)"/>
<path d="M0 0 C1.5 1.375 1.5 1.375 3 3 C3 3.66 3 4.32 3 5 C2.34 5 1.68 5 1 5 C1 5.66 1 6.32 1 7 C1.66 7.33 2.32 7.66 3 8 C2.34 8.66 1.68 9.32 1 10 C-0.60725635 6.78548731 -0.05748185 3.56387464 0 0 Z " fill="#587360" transform="translate(291,304)"/>
<path d="M0 0 C1.65 0 3.3 0 5 0 C6.125 4.75 6.125 4.75 5 7 C3.35 4.69 1.7 2.38 0 0 Z " fill="#819F86" transform="translate(322,291)"/>
<path d="M0 0 C0.66 0 1.32 0 2 0 C1.67 1.65 1.34 3.3 1 5 C0.34 5 -0.32 5 -1 5 C-1.33 5.99 -1.66 6.98 -2 8 C-1.125 1.125 -1.125 1.125 0 0 Z " fill="#3C5D46" transform="translate(247,289)"/>
<path d="M0 0 C1.485 0.99 1.485 0.99 3 2 C2.67 3.65 2.34 5.3 2 7 C0.4375 5.75 0.4375 5.75 -1 4 C-0.6875 1.8125 -0.6875 1.8125 0 0 Z " fill="#215531" transform="translate(254,284)"/>
<path d="M0 0 C0.66 0 1.32 0 2 0 C2 0.66 2 1.32 2 2 C2.99 2 3.98 2 5 2 C5 1.34 5 0.68 5 0 C5.66 0.33 6.32 0.66 7 1 C7 1.99 7 2.98 7 4 C2.545 3.01 2.545 3.01 -2 2 C-1.34 1.34 -0.68 0.68 0 0 Z " fill="#67846F" transform="translate(241,203)"/>
<path d="M0 0 C-2.98646769 1.99097846 -5.59687262 2.94124926 -9 4 C-8 1 -8 1 -5.625 -0.25 C-3 -1 -3 -1 0 0 Z " fill="#718976" transform="translate(210,203)"/>
<path d="M0 0 C0.66 0.66 1.32 1.32 2 2 C1.67 2.99 1.34 3.98 1 5 C0.34 5 -0.32 5 -1 5 C-1.33 5.66 -1.66 6.32 -2 7 C-2.66 5.68 -3.32 4.36 -4 3 C-3.01 3 -2.02 3 -1 3 C-0.67 2.01 -0.34 1.02 0 0 Z " fill="#5F7A5F" transform="translate(243,177)"/>
<path d="M0 0 C0.33 0 0.66 0 1 0 C1 1.65 1 3.3 1 5 C-0.65 5.66 -2.3 6.32 -4 7 C-4.33 6.34 -4.66 5.68 -5 5 C-3.35 4.34 -1.7 3.68 0 3 C0 2.01 0 1.02 0 0 Z " fill="#6F8775" transform="translate(284,316)"/>
<path d="M0 0 C-4.1795645 2.78637633 -6.14668677 1.79562512 -11 1 C-7.2297564 -1.56376565 -4.32597804 -0.83191885 0 0 Z " fill="#375441" transform="translate(183,288)"/>
<path d="M0 0 C0.99 0.99 1.98 1.98 3 3 C2.34 4.65 1.68 6.3 1 8 C0.01 7.67 -0.98 7.34 -2 7 C-1.67 6.01 -1.34 5.02 -1 4 C-0.34 4 0.32 4 1 4 C0.67 2.68 0.34 1.36 0 0 Z " fill="#325B3B" transform="translate(246,181)"/>
<path d="M0 0 C0.99 0.66 1.98 1.32 3 2 C3 3.32 3 4.64 3 6 C2.34 6 1.68 6 1 6 C1 5.34 1 4.68 1 4 C0.01 3.67 -0.98 3.34 -2 3 C-1.34 2.01 -0.68 1.02 0 0 Z " fill="#4D6D4F" transform="translate(236,153)"/>
<path d="M0 0 C-0.33 1.32 -0.66 2.64 -1 4 C-1.66 4 -2.32 4 -3 4 C-4.625 2 -4.625 2 -6 0 C-3.50907189 -1.24546405 -2.58919267 -0.7767578 0 0 Z " fill="#608160" transform="translate(278,145)"/>
<path d="M0 0 C1.485 0.99 1.485 0.99 3 2 C2.67 3.32 2.34 4.64 2 6 C1.01 5.67 0.02 5.34 -1 5 C-0.67 3.35 -0.34 1.7 0 0 Z " fill="#809777" transform="translate(257,117)"/>
<path d="" fill="#FFFFFF" transform="translate(0,0)"/>
<path d="" fill="#00FF00" transform="translate(0,0)"/>
<path d="" fill="#FFFFFF" transform="translate(0,0)"/>
</svg>
